<svg width="16" height="19" viewBox="0 0 16 19" fill="none" xmlns="http://www.w3.org/2000/svg">
<g clip-path="url(#clip0_24_1277)">
<path fill-rule="evenodd" clip-rule="evenodd" d="M8.9522 18.6969C11.073 17.2234 16 13.2711 16 8.35404C16 3.74023 12.4183 0 8 0C3.58172 0 0 3.74023 0 8.35404C0 13.2711 4.92699 17.2234 7.0478 18.6969C7.62937 19.101 8.37063 19.101 8.9522 18.6969ZM8 4.96021C6.20507 4.96021 4.75 6.47968 4.75 8.35404C4.75 10.2284 6.20507 11.7479 8 11.7479C9.79493 11.7479 11.25 10.2284 11.25 8.35404C11.25 6.47968 9.79493 4.96021 8 4.96021Z" fill="#B60055"/>
</g>
<defs>
<clipPath id="clip0_24_1277">
<rect width="16" height="19" fill="white"/>
</clipPath>
</defs>
</svg>
