<svg width="21" height="21" viewBox="0 0 21 21" fill="none" xmlns="http://www.w3.org/2000/svg">
<g clip-path="url(#clip0_24_1292)">
<path d="M10.5044 21.0087C16.3058 21.0087 21.0087 16.3058 21.0087 10.5044C21.0087 4.70297 16.3058 0 10.5044 0C4.70297 0 0 4.70297 0 10.5044C0 16.3058 4.70297 21.0087 10.5044 21.0087Z" fill="#CE0058"/>
<path fill-rule="evenodd" clip-rule="evenodd" d="M4.7493 10.3907C7.81052 9.0613 9.84842 8.17792 10.8717 7.74934C13.7843 6.5336 14.3965 6.32369 14.7901 6.31494C14.8776 6.31494 15.07 6.33243 15.2012 6.43739C15.3061 6.52485 15.3324 6.63856 15.3499 6.72602C15.3674 6.81348 15.3849 6.99716 15.3674 7.1371C15.2099 8.79891 14.5277 12.831 14.1779 14.6852C14.0292 15.4724 13.7406 15.7348 13.4607 15.761C12.8484 15.8135 12.3849 15.3587 11.7989 14.9738C10.8717 14.3703 10.3557 13.9942 9.45484 13.3995C8.41402 12.7173 9.08749 12.3412 9.68224 11.7289C9.83968 11.5715 12.5248 9.12252 12.5773 8.90386C12.586 8.87762 12.586 8.77267 12.5248 8.72019C12.4636 8.66771 12.3761 8.6852 12.3061 8.7027C12.2099 8.72019 10.7406 9.69978 7.88049 11.6327C7.46067 11.9214 7.08457 12.0613 6.74347 12.0526C6.36737 12.0438 5.65017 11.8426 5.1079 11.6677C4.45192 11.4578 3.92714 11.3441 3.97087 10.9767C3.99711 10.7843 4.2595 10.5919 4.7493 10.3907Z" fill="white"/>
</g>
<defs>
<clipPath id="clip0_24_1292">
<rect width="21" height="21" fill="white"/>
</clipPath>
</defs>
</svg>
