<svg width="21" height="21" viewBox="0 0 21 21" fill="none" xmlns="http://www.w3.org/2000/svg">
<path d="M21 18.0833C21 19.6945 19.6945 21 18.0833 21H2.91667C1.30608 21 0 19.6945 0 18.0833V2.91667C0 1.3055 1.30608 0 2.91667 0H18.0833C19.6945 0 21 1.3055 21 2.91667V18.0833Z" fill="#CE0058"/>
<path d="M17.4632 7.02375C17.4901 6.93567 17.5029 6.854 17.4994 6.78109C17.4907 6.56992 17.3454 6.4165 17.0036 6.4165H15.4764C15.0908 6.4165 14.9129 6.64984 14.8091 6.88375C14.8091 6.88375 13.8571 8.84317 12.7598 10.1353C12.404 10.5092 12.2232 10.4998 12.0307 10.4998C11.9274 10.4998 11.6667 10.375 11.6667 10.0326V7.008C11.6667 6.60317 11.5657 6.4165 11.2397 6.4165H8.52775C8.29033 6.4165 8.16667 6.60317 8.16667 6.79042C8.16667 7.1795 8.6905 7.27284 8.75 8.36309V10.4765C8.75 10.9898 8.66075 11.0832 8.46825 11.0832C7.94908 11.0832 6.92708 9.33317 6.24283 7.0395C6.09467 6.588 5.9465 6.4165 5.56092 6.4165H4.01917C3.57408 6.4165 3.5 6.63467 3.5 6.868C3.5 7.28859 3.85 9.56242 5.76042 12.1769C7.14583 14.0728 8.97108 15.1665 10.5869 15.1665C11.5657 15.1665 11.6661 14.9174 11.6661 14.5283V12.7947C11.6667 12.3274 11.7734 12.2498 12.0849 12.2498C12.3072 12.2498 12.7604 12.3957 13.6354 13.4165C14.6446 14.5937 14.8277 15.1665 15.4064 15.1665H16.9336C17.2882 15.1665 17.4918 15.0178 17.5 14.729C17.5017 14.6555 17.4912 14.5733 17.4673 14.4817C17.3542 14.1457 16.835 13.3243 16.1875 12.5415C15.8287 12.1081 15.4747 11.6788 15.3119 11.4454C15.2028 11.2932 15.1614 11.1858 15.1667 11.0832C15.1719 10.9753 15.2279 10.8726 15.3119 10.7291C15.2967 10.7291 17.2707 7.95767 17.4632 7.02375Z" fill="white"/>
</svg>
