<svg width="34" height="34" viewBox="0 0 34 34" fill="none" xmlns="http://www.w3.org/2000/svg">
<g clip-path="url(#clip0_16_693)">
<path d="M0.000183105 0H34.0002V34H0.000183105V0Z" fill="#00AAE7"/>
<path d="M0.000183105 0V26.1627H26.1628V0H0.000183105Z" fill="url(#paint0_linear_16_693)"/>
<path d="M26.163 26.1628V34H34.0002V26.1628H26.163Z" fill="url(#paint1_linear_16_693)"/>
<path d="M4.65911 17.0448C4.65911 17.6839 4.85946 18.2175 5.26017 18.6456C5.66695 19.0737 6.1739 19.2877 6.78103 19.2877C7.18174 19.2877 7.53994 19.1968 7.85565 19.015C8.17136 18.8274 8.44153 18.5518 8.66617 18.1882L9.53133 18.6896C9.26419 19.1821 8.88474 19.5691 8.39296 19.8506C7.90726 20.1321 7.3578 20.2728 6.7446 20.2728C5.79141 20.2728 5.00821 19.9708 4.39501 19.3668C3.78788 18.7629 3.48431 17.9947 3.48431 17.0624C3.48431 16.1476 3.80306 15.3824 4.44054 14.7667C5.07803 14.1451 5.87337 13.8344 6.82656 13.8344C7.43977 13.8344 7.97404 13.9692 8.42939 14.239C8.89081 14.5028 9.25205 14.884 9.51311 15.3824L8.61153 15.9277C8.38689 15.5466 8.12886 15.268 7.83744 15.0921C7.55208 14.9104 7.20602 14.8195 6.79924 14.8195C6.17997 14.8195 5.66695 15.0306 5.26017 15.4528C4.85946 15.8749 4.65911 16.4056 4.65911 17.0448Z" fill="url(#paint2_linear_16_693)"/>
<path d="M9.99438 17.0624C9.99438 16.1476 10.3101 15.3824 10.9415 14.7667C11.5729 14.1451 12.3622 13.8344 13.3093 13.8344C14.2564 13.8344 15.0427 14.1422 15.668 14.7579C16.2934 15.3677 16.606 16.13 16.606 17.0448C16.606 17.9595 16.2903 18.7277 15.6589 19.3492C15.0275 19.9649 14.2413 20.2728 13.3002 20.2728C12.3531 20.2728 11.5638 19.9679 10.9324 19.358C10.3071 18.7423 9.99438 17.9771 9.99438 17.0624ZM11.1692 17.0448C11.1692 17.6839 11.3726 18.2175 11.7793 18.6456C12.1861 19.0737 12.6961 19.2877 13.3093 19.2877C13.9164 19.2877 14.4204 19.0766 14.8211 18.6544C15.2218 18.2322 15.4221 17.7015 15.4221 17.0624C15.4221 16.4291 15.2187 15.8984 14.812 15.4703C14.4052 15.0364 13.9013 14.8195 13.3002 14.8195C12.687 14.8195 12.177 15.0306 11.7702 15.4528C11.3695 15.8749 11.1692 16.4056 11.1692 17.0448Z" fill="url(#paint3_linear_16_693)"/>
<path d="M21.5322 17.5573L23.2076 20.1321H21.8401L20.3368 17.7457H18.8788V20.1321H17.7286V13.8521H20.6538C21.4145 13.8521 22.0031 14.0195 22.4197 14.3544C22.8363 14.6834 23.0446 15.1499 23.0446 15.754C23.0446 16.2086 22.9117 16.5913 22.6461 16.9023C22.3865 17.2134 22.0152 17.4317 21.5322 17.5573ZM21.8673 15.7899C21.8673 15.4849 21.7616 15.2516 21.5503 15.0901C21.339 14.9226 21.0341 14.8389 20.6356 14.8389H18.8788V16.7678H20.5904C20.9888 16.7678 21.2998 16.6811 21.5231 16.5076C21.7526 16.3342 21.8673 16.0949 21.8673 15.7899Z" fill="url(#paint4_linear_16_693)"/>
<path d="M27.4488 19.2701C27.8549 19.2701 28.2234 19.1968 28.5545 19.0502C28.8919 18.8977 29.2261 18.6573 29.5571 18.3289L30.2505 19.0502C29.8632 19.4548 29.426 19.7597 28.9387 19.9649C28.4577 20.1702 27.933 20.2728 27.3645 20.2728C26.3713 20.2728 25.556 19.9737 24.9189 19.3756C24.2879 18.7717 23.9725 18.0006 23.9725 17.0624C23.9725 16.1535 24.2879 15.3883 24.9189 14.7667C25.5498 14.1451 26.34 13.8344 27.2895 13.8344C28.2578 13.8344 29.0418 14.1305 29.6415 14.7227C30.2412 15.3091 30.541 16.0714 30.541 17.0096C30.541 17.0917 30.5348 17.1738 30.5223 17.2559C30.516 17.3321 30.5035 17.4171 30.4848 17.5109H25.2187C25.3124 18.0446 25.5623 18.4726 25.9683 18.7951C26.3806 19.1118 26.8741 19.2701 27.4488 19.2701ZM27.2989 14.8107C26.7679 14.8107 26.3119 14.9719 25.9309 15.2944C25.5498 15.6111 25.3124 16.0362 25.2187 16.5698H29.3135C29.2386 16.0186 29.023 15.5876 28.667 15.2768C28.3109 14.9661 27.8549 14.8107 27.2989 14.8107Z" fill="url(#paint5_linear_16_693)"/>
<path d="M30.1599 13.8746V13.9259H30.3203V14.3847H30.3748V13.9259H30.5352V13.8746H30.1599Z" fill="white"/>
<path d="M31.0887 13.9696V14.3847H31.1431V13.8746H31.0958L30.8845 14.1517L30.6732 13.8746H30.6259V14.3847H30.6807V13.9696L30.8845 14.2389L31.0887 13.9696Z" fill="white"/>
<path d="M3.79761 3.03979H4.63196V3.87415H3.79761V3.03979Z" fill="white"/>
<path d="M4.61115 7.38675V4.37891H3.81836V7.38378H4.61115V7.38675Z" fill="white"/>
<path d="M9.86078 7.4164V6.68002C9.74498 6.68002 9.647 6.67409 9.57574 6.66221C9.4926 6.65033 9.43024 6.62064 9.38868 6.57907C9.34711 6.5375 9.32038 6.47812 9.30554 6.39795C9.29366 6.32372 9.28772 6.22573 9.28772 6.10696V5.05882H9.86078V4.37886H9.28772V3.20898H8.49493V6.11587C8.49493 6.36232 8.51572 6.57016 8.55729 6.73644C8.59886 6.89975 8.67012 7.03336 8.7681 7.13432C8.86609 7.23527 8.99674 7.30653 9.15411 7.35107C9.31445 7.39561 9.51635 7.4164 9.75686 7.4164H9.86078Z" fill="white"/>
<path d="M14.3978 7.38674V2.97742H13.605V7.38674H14.3978Z" fill="white"/>
<path d="M7.73187 4.67589C7.51215 4.43835 7.20335 4.31958 6.81141 4.31958C6.62137 4.31958 6.44619 4.35818 6.29179 4.43538C6.13442 4.51258 6.00377 4.61947 5.89688 4.75606L5.85531 4.81247V4.762V4.37896H5.0744V7.38383H5.86125V5.78341V5.89328C5.86125 5.87546 5.86125 5.85765 5.86125 5.83983C5.87016 5.55775 5.93845 5.34991 6.0691 5.21629C6.20865 5.07377 6.3779 5.0025 6.5709 5.0025C6.79953 5.0025 6.97471 5.07377 7.09051 5.21035C7.20335 5.34694 7.26273 5.53994 7.26273 5.78638V5.79529V7.38383H8.06146V5.67949C8.06443 5.25192 7.95159 4.91343 7.73187 4.67589Z" fill="white"/>
<path d="M10.8407 5.60225C10.8407 5.38253 11.093 4.9995 11.6364 4.99653C12.1798 4.99653 12.4351 5.37956 12.4351 5.59928L10.8407 5.60225ZM13.1953 5.87839C13.1953 5.66164 13.1567 5.45973 13.0824 5.2697C13.0052 5.08263 12.8983 4.91636 12.7647 4.77383C12.6281 4.63131 12.4648 4.52145 12.2748 4.44128C12.0848 4.36111 11.8739 4.32251 11.6453 4.32251C11.4286 4.32251 11.2237 4.36408 11.0337 4.44425C10.8436 4.52739 10.6773 4.63725 10.5378 4.7768C10.3982 4.91636 10.2854 5.08264 10.2052 5.27267C10.1221 5.4627 10.0835 5.66758 10.0835 5.88433C10.0835 6.10108 10.1221 6.30596 10.1993 6.49599C10.2765 6.68602 10.3864 6.8523 10.5229 6.99186C10.6595 7.13141 10.8288 7.24424 11.0247 7.32441C11.2207 7.40755 11.4375 7.44912 11.6691 7.44912C12.3401 7.44912 12.7558 7.14329 13.0052 6.85824L12.4351 6.42473C12.3164 6.56725 12.0313 6.76025 11.675 6.76025C11.4523 6.76025 11.2682 6.70978 11.1287 6.60585C10.9891 6.5049 10.8941 6.36238 10.8436 6.18719L10.8347 6.16047H13.1953L13.1953 5.87839Z" fill="white"/>
<path d="M15.6568 7.11545C15.6389 7.16017 15.6121 7.20041 15.5808 7.23171C15.5495 7.26301 15.5093 7.28984 15.4646 7.30772C15.4198 7.32561 15.3751 7.33455 15.3215 7.33455C15.2723 7.33455 15.2231 7.32561 15.1784 7.30772C15.1337 7.28984 15.0934 7.26301 15.0621 7.23171C15.0308 7.20041 15.004 7.16017 14.9861 7.11545C14.9682 7.07074 14.9593 7.02603 14.9593 6.97237C14.9593 6.92319 14.9682 6.874 14.9861 6.82929C15.004 6.78458 15.0308 6.74433 15.0621 6.71303C15.0934 6.68173 15.1337 6.65491 15.1784 6.63702C15.2231 6.61914 15.2678 6.61019 15.3215 6.61019C15.3707 6.61019 15.4198 6.61913 15.4646 6.63702C15.5093 6.65491 15.5495 6.68173 15.5808 6.71303C15.6121 6.74433 15.6389 6.78458 15.6568 6.82929C15.6747 6.874 15.6837 6.91872 15.6837 6.97237C15.6837 7.02603 15.6747 7.07074 15.6568 7.11545ZM15.7284 6.80246C15.706 6.7488 15.6747 6.70409 15.6345 6.66385C15.5942 6.62361 15.5495 6.59231 15.4959 6.56995C15.4422 6.54759 15.3841 6.53418 15.3259 6.53418C15.2633 6.53418 15.2097 6.54759 15.156 6.56995C15.1024 6.59231 15.0577 6.62361 15.0174 6.66385C14.9772 6.70409 14.9459 6.7488 14.9235 6.80246C14.9012 6.85612 14.8878 6.91424 14.8878 6.97237C14.8878 7.03497 14.9012 7.08863 14.9235 7.14228C14.9459 7.19594 14.9772 7.24065 15.0174 7.28089C15.0577 7.32114 15.1024 7.35244 15.156 7.37479C15.2097 7.39715 15.2678 7.41056 15.3259 7.41056C15.3885 7.41056 15.4422 7.39715 15.4959 7.37479C15.5495 7.35244 15.5942 7.32114 15.6345 7.28089C15.6747 7.24065 15.706 7.19594 15.7284 7.14228C15.7507 7.08863 15.7641 7.0305 15.7641 6.97237C15.7641 6.91424 15.7507 6.85612 15.7284 6.80246Z" fill="white"/>
<path d="M15.3572 6.93655C15.3438 6.93655 15.3304 6.93655 15.3125 6.93655H15.2454V6.79346H15.3125C15.3259 6.79346 15.3393 6.79346 15.3572 6.79346C15.3707 6.79346 15.3841 6.79794 15.3975 6.80241C15.4109 6.80688 15.4198 6.81582 15.4243 6.82477C15.4332 6.83371 15.4332 6.84712 15.4332 6.86501C15.4332 6.88289 15.4288 6.89631 15.4243 6.90525C15.4154 6.91419 15.4064 6.92313 15.3975 6.92761C15.3841 6.93208 15.3706 6.93655 15.3572 6.93655ZM15.4064 7.01256C15.4422 7.00809 15.469 6.99468 15.4914 6.97232C15.5137 6.94996 15.5271 6.91866 15.5271 6.87395C15.5271 6.82476 15.5137 6.78899 15.4824 6.76217C15.4556 6.73534 15.4064 6.72192 15.3483 6.72192H15.1516V7.22719H15.2454V7.0215H15.3125L15.4377 7.22719H15.5361L15.4064 7.01256Z" fill="white"/>
<path fill-rule="evenodd" clip-rule="evenodd" d="M28.1161 28.1248H28.9042V28.9676H28.1161V28.1248ZM28.1161 29.5021H28.9042V32.0463H28.1161V29.5021Z" fill="white"/>
<path d="M31.2237 29.3811C30.6446 29.3167 30.3919 29.5114 30.3479 29.5926L30.406 28.837H32.0947V28.1105H29.728L29.5852 30.2441L30.158 30.3314C30.2557 30.1988 30.3924 30.0984 30.55 30.0436C30.7076 29.9888 30.8786 29.9823 31.0401 30.0249C31.1318 30.0466 31.2178 30.0874 31.292 30.1444C31.3663 30.2014 31.4271 30.2733 31.4704 30.3553C31.5137 30.4373 31.5385 30.5274 31.543 30.6195C31.5476 30.7117 31.5318 30.8037 31.4967 30.8893C31.435 31.0439 31.319 31.172 31.1696 31.2509C31.0201 31.3298 30.8469 31.3543 30.6807 31.32C30.3954 31.258 30.1348 31.1163 29.9305 30.9123L29.422 31.3998C29.7249 31.7753 30.1706 32.0604 30.9914 32.0604C31.6913 32.0604 32.2595 31.6128 32.3646 30.8418C32.3889 30.6723 32.3785 30.4998 32.3341 30.3342C32.2897 30.1687 32.2122 30.0134 32.1059 29.8772C31.9997 29.7411 31.8669 29.6269 31.7152 29.5413C31.5635 29.4556 31.3959 29.4001 31.2221 29.3781" fill="white"/>
</g>
<defs>
<linearGradient id="paint0_linear_16_693" x1="0.000183068" y1="-3.76809e-08" x2="33.9991" y2="33.9989" gradientUnits="userSpaceOnUse">
<stop stop-color="#1284CB"/>
<stop offset="0.429664" stop-color="#009FE7"/>
<stop offset="1" stop-color="#1284C9"/>
</linearGradient>
<linearGradient id="paint1_linear_16_693" x1="0.000167684" y1="5.23081e-05" x2="33.999" y2="33.999" gradientUnits="userSpaceOnUse">
<stop stop-color="#1284CB"/>
<stop offset="0.429664" stop-color="#009FE7"/>
<stop offset="1" stop-color="#1284C9"/>
</linearGradient>
<linearGradient id="paint2_linear_16_693" x1="16.9722" y1="13.6749" x2="16.9722" y2="20.2201" gradientUnits="userSpaceOnUse">
<stop stop-color="white"/>
<stop offset="1" stop-color="#AEEBFD"/>
</linearGradient>
<linearGradient id="paint3_linear_16_693" x1="16.9722" y1="13.6749" x2="16.9722" y2="20.2201" gradientUnits="userSpaceOnUse">
<stop stop-color="white"/>
<stop offset="1" stop-color="#AEEBFD"/>
</linearGradient>
<linearGradient id="paint4_linear_16_693" x1="17.313" y1="13.5458" x2="17.313" y2="20.2218" gradientUnits="userSpaceOnUse">
<stop stop-color="white"/>
<stop offset="1" stop-color="#AEEBFD"/>
</linearGradient>
<linearGradient id="paint5_linear_16_693" x1="17.3712" y1="13.6749" x2="17.3712" y2="20.2201" gradientUnits="userSpaceOnUse">
<stop stop-color="white"/>
<stop offset="1" stop-color="#AEEBFD"/>
</linearGradient>
<clipPath id="clip0_16_693">
<rect width="34" height="34" fill="white"/>
</clipPath>
</defs>
</svg>
