<svg width="34" height="34" viewBox="0 0 34 34" fill="none" xmlns="http://www.w3.org/2000/svg">
<rect x="0.000183105" width="34" height="34" fill="#00205B"/>
<path d="M19.7953 11L19.1348 14.788C19.1231 14.8581 19.088 14.9166 19.0296 14.9633C18.9711 15.0101 18.901 15.0335 18.8191 15.0335H17.9832C17.9052 15.0335 17.8351 15.0101 17.7727 14.9633C17.7143 14.9166 17.6792 14.8562 17.6675 14.7821L17.2174 12.1574C17.2057 12.0678 17.194 11.9801 17.1823 11.8944C17.1706 11.8048 17.1589 11.7171 17.1473 11.6313H17.0362C17.0284 11.7171 17.0187 11.8048 17.007 11.8944C16.9953 11.984 16.9836 12.0717 16.9719 12.1574L16.5218 14.7821C16.5101 14.8562 16.4731 14.9166 16.4107 14.9633C16.3523 15.0101 16.2841 15.0335 16.2061 15.0335H15.3643C15.2864 15.0335 15.2162 15.0101 15.1539 14.9633C15.0954 14.9166 15.0604 14.8581 15.0487 14.788L14.3881 11H15.2883L15.7092 13.8059C15.7209 13.8916 15.7307 13.9832 15.7385 14.0807C15.7463 14.1781 15.754 14.2814 15.7618 14.3905H15.8729C15.8885 14.2969 15.9041 14.1995 15.9197 14.0982C15.9392 13.993 15.9547 13.8955 15.9664 13.8059L16.4107 11.2747C16.4224 11.1929 16.4575 11.1267 16.5159 11.076C16.5744 11.0253 16.6445 11 16.7264 11H17.4629C17.5448 11 17.613 11.0253 17.6675 11.076C17.726 11.1267 17.7611 11.1929 17.7727 11.2747L18.2229 13.8118C18.2384 13.9053 18.254 14.0027 18.2696 14.104C18.2852 14.2015 18.2989 14.2969 18.3105 14.3905H18.4275C18.4352 14.2969 18.443 14.1995 18.4508 14.0982C18.4625 13.9969 18.4723 13.9033 18.4801 13.8176L18.8951 11H19.7953Z" fill="white"/>
<path d="M17.117 19.1079C17.3158 19.1079 17.532 19.1196 17.7659 19.143C17.9997 19.1625 18.2277 19.2053 18.4498 19.2716L18.3914 19.862C18.2199 19.8581 18.0192 19.8542 17.7893 19.8503C17.5593 19.8464 17.3333 19.8445 17.1112 19.8445C17.002 19.8445 16.9085 19.8484 16.8306 19.8561C16.7565 19.86 16.6961 19.8756 16.6494 19.9029C16.6026 19.9263 16.5695 19.9633 16.55 20.014C16.5305 20.0646 16.5207 20.1348 16.5207 20.2244C16.5207 20.3608 16.5519 20.4602 16.6143 20.5226C16.6805 20.5849 16.7916 20.6414 16.9475 20.6921L17.725 20.9434C18.0484 21.0526 18.2725 21.2006 18.3972 21.3877C18.5219 21.5748 18.5843 21.8203 18.5843 22.1243C18.5843 22.3542 18.557 22.5451 18.5024 22.6971C18.4479 22.8491 18.3621 22.968 18.2452 23.0537C18.1283 23.1395 17.9744 23.1999 17.7834 23.2349C17.5924 23.2739 17.3586 23.2934 17.0819 23.2934C16.9494 23.2934 16.7604 23.2836 16.5149 23.2642C16.2694 23.2486 15.9888 23.2057 15.6731 23.1356L15.7316 22.5042C15.9615 22.5081 16.1603 22.514 16.3278 22.5218C16.4993 22.5257 16.6455 22.5296 16.7663 22.5335C16.8871 22.5335 16.9923 22.5335 17.0819 22.5335C17.2378 22.5335 17.3586 22.5237 17.4444 22.5042C17.534 22.4847 17.5963 22.4458 17.6314 22.3873C17.6665 22.3289 17.684 22.2451 17.684 22.136C17.684 22.0424 17.6704 21.9684 17.6431 21.9138C17.6197 21.8554 17.5788 21.8105 17.5204 21.7794C17.4658 21.7443 17.3898 21.7131 17.2924 21.6858L16.474 21.4052C16.1661 21.2922 15.9479 21.1441 15.8193 20.961C15.6907 20.7778 15.6264 20.5362 15.6264 20.2361C15.6264 20.0023 15.6536 19.8133 15.7082 19.6691C15.7667 19.521 15.8543 19.406 15.9713 19.3242C16.0921 19.2424 16.246 19.1858 16.4331 19.1547C16.624 19.1235 16.852 19.1079 17.117 19.1079Z" fill="white"/>
<path d="M25.2697 19.1254C25.5892 19.1254 25.8582 19.1605 26.0764 19.2307C26.2985 19.2969 26.4758 19.408 26.6083 19.5639C26.7447 19.7198 26.8441 19.9321 26.9065 20.201C26.9688 20.466 27 20.7992 27 21.2006C27 21.602 26.9688 21.9372 26.9065 22.2061C26.8441 22.4711 26.7447 22.6815 26.6083 22.8374C26.4758 22.9933 26.2985 23.1063 26.0764 23.1765C25.8582 23.2427 25.5892 23.2758 25.2697 23.2758C24.9618 23.2758 24.6793 23.27 24.4221 23.2583C24.1649 23.2466 23.9193 23.233 23.6855 23.2174L24.0596 22.5568C24.2077 22.5646 24.3831 22.5724 24.5857 22.5802C24.7923 22.5841 25.0203 22.5861 25.2697 22.5861C25.4684 22.5861 25.6243 22.5471 25.7373 22.4692C25.8543 22.3873 25.9361 22.2451 25.9829 22.0424C26.0335 21.8398 26.0588 21.5592 26.0588 21.2006C26.0588 20.8421 26.0335 20.5615 25.9829 20.3589C25.9361 20.1562 25.8543 20.014 25.7373 19.9321C25.6243 19.8503 25.4684 19.8094 25.2697 19.8094C25.032 19.8094 24.8196 19.8113 24.6325 19.8152C24.4455 19.8152 24.2623 19.8152 24.083 19.8152L23.6855 19.1839C23.9193 19.1683 24.1629 19.1547 24.4162 19.143C24.6734 19.1313 24.9579 19.1254 25.2697 19.1254ZM24.5799 19.1839V23.2174H23.6855V19.1839H24.5799Z" fill="white"/>
<path d="M9.33241 19.1839C9.40646 19.1839 9.47076 19.2053 9.52532 19.2482C9.58377 19.2911 9.62275 19.3476 9.64223 19.4177L10.8114 23.2174H9.89944L9.0752 20.2537C9.05961 20.1874 9.04403 20.1212 9.02844 20.0549C9.01285 19.9848 8.99921 19.9185 8.98752 19.8561H8.82969C8.81799 19.9185 8.80436 19.9848 8.78877 20.0549C8.77708 20.1212 8.76149 20.1874 8.742 20.2537L7.91777 23.2174H7L8.17497 19.4177C8.19446 19.3476 8.23148 19.2911 8.28604 19.2482C8.3445 19.2053 8.41075 19.1839 8.48479 19.1839H9.33241ZM9.95205 21.4812V22.1535H7.85931V21.4812H9.95205Z" fill="white"/>
</svg>
