<svg width="34" height="34" viewBox="0 0 34 34" fill="none" xmlns="http://www.w3.org/2000/svg">
<rect x="0.000183105" width="34" height="34" fill="#00205B"/>
<path d="M7.72526 13.6C8.45326 13.6 9.04126 13.676 9.48926 13.828C9.94526 13.972 10.2773 14.224 10.4853 14.584C10.7013 14.936 10.8093 15.428 10.8093 16.06C10.8093 16.444 10.7573 16.784 10.6533 17.08C10.5573 17.368 10.3933 17.6 10.1613 17.776C9.92926 17.952 9.61326 18.064 9.21326 18.112V18.172C9.35726 18.196 9.50526 18.252 9.65726 18.34C9.81726 18.428 9.96526 18.56 10.1013 18.736C10.2373 18.904 10.3373 19.132 10.4013 19.42L11.1213 22H9.18926L8.55326 19.48C8.48126 19.208 8.37326 19.02 8.22926 18.916C8.09326 18.812 7.90126 18.76 7.65326 18.76C7.10926 18.76 6.64926 18.76 6.27326 18.76C5.90526 18.752 5.59326 18.744 5.33726 18.736C5.08926 18.728 4.86526 18.72 4.66526 18.712L4.70126 17.38H7.68926C8.00926 17.38 8.26126 17.348 8.44526 17.284C8.63726 17.212 8.76926 17.088 8.84126 16.912C8.92126 16.736 8.96126 16.492 8.96126 16.18C8.96126 15.86 8.92126 15.616 8.84126 15.448C8.76926 15.272 8.63726 15.152 8.44526 15.088C8.26126 15.016 8.00926 14.98 7.68926 14.98C6.93726 14.98 6.30126 14.984 5.78126 14.992C5.26126 15 4.90526 15.012 4.71326 15.028L4.53326 13.72C4.86926 13.68 5.18526 13.652 5.48126 13.636C5.77726 13.62 6.10126 13.612 6.45326 13.612C6.80526 13.604 7.22926 13.6 7.72526 13.6ZM6.34526 13.72V22H4.53326V13.72H6.34526ZM16.2628 13.72C16.4148 13.72 16.5468 13.764 16.6588 13.852C16.7788 13.94 16.8588 14.056 16.8988 14.2L19.2988 22H17.4268L15.7348 15.916C15.7028 15.78 15.6708 15.644 15.6388 15.508C15.6068 15.364 15.5788 15.228 15.5548 15.1H15.2308C15.2068 15.228 15.1788 15.364 15.1468 15.508C15.1228 15.644 15.0908 15.78 15.0508 15.916L13.3588 22H11.4748L13.8868 14.2C13.9268 14.056 14.0028 13.94 14.1148 13.852C14.2348 13.764 14.3708 13.72 14.5228 13.72H16.2628ZM17.5348 18.436V19.816H13.2388V18.436H17.5348ZM28.6266 13.72C29.0586 13.72 29.2826 13.944 29.2986 14.392L29.6106 22H27.9186L27.6426 15.136H27.4266L26.0946 20.296C26.0226 20.68 25.7826 20.872 25.3746 20.872H24.2226C23.8146 20.872 23.5666 20.68 23.4786 20.296L22.1466 15.136H21.9426L21.6906 22H19.9866L20.2986 14.392C20.3146 13.944 20.5426 13.72 20.9826 13.72H22.6986C23.0906 13.72 23.3306 13.916 23.4186 14.308L24.4866 18.472C24.5346 18.664 24.5746 18.86 24.6066 19.06C24.6386 19.252 24.6746 19.448 24.7146 19.648H24.8706C24.9106 19.448 24.9466 19.252 24.9786 19.06C25.0186 18.86 25.0586 18.66 25.0986 18.46L26.1546 14.308C26.2346 13.916 26.4746 13.72 26.8746 13.72H28.6266Z" fill="white"/>
</svg>
