<svg width="22" height="22" viewBox="0 0 22 22" fill="none" xmlns="http://www.w3.org/2000/svg">
<path d="M1.5 20V4C1.5 3.17157 2.17157 2.5 3 2.5H19C19.8284 2.5 20.5 3.17157 20.5 4V20C20.5 20.8284 19.8284 21.5 19 21.5H3C2.17157 21.5 1.5 20.8284 1.5 20Z" stroke="#CE0058"/>
<path d="M1.5 3H20.5L21 8H1L1.5 3Z" fill="#CE0058"/>
<rect x="4" width="2" height="2" fill="#CE0058"/>
<rect x="16" width="2" height="2" fill="#CE0058"/>
<path d="M10 14.5L8.70711 13.2071C8.31658 12.8166 7.68342 12.8166 7.29289 13.2071L6.70711 13.7929C6.31658 14.1834 6.31658 14.8166 6.70711 15.2071L9.29289 17.7929C9.68342 18.1834 10.3166 18.1834 10.7071 17.7929L16.2929 12.2071C16.6834 11.8166 16.6834 11.1834 16.2929 10.7929L15.7071 10.2071C15.3166 9.81658 14.6834 9.81658 14.2929 10.2071L10 14.5Z" fill="#CE0058"/>
</svg>
