<svg width="2405" height="1330" viewBox="0 0 2405 1330" fill="none" xmlns="http://www.w3.org/2000/svg">
<g opacity="0.5">
<path d="M139.004 1234L167.657 1240.15L182.618 1266.69L195 1244.72L207.382 1266.69L222.343 1240.15L250.996 1234L251 1234L195 1330L195 1287.33L182.179 1308.02L139 1234L139.004 1234Z" fill="#010712"/>
<path d="M1251 1234L1279.66 1240.15L1294.62 1266.69L1307 1244.72L1319.38 1266.69L1334.34 1240.15L1363 1234L1363 1234L1307 1330L1307 1287.33L1294.18 1308.02L1251 1234L1251 1234Z" fill="#010712"/>
<path d="M695.004 1234L723.657 1240.15L738.618 1266.69L751 1244.72L763.382 1266.69L778.343 1240.15L806.996 1234L807 1234L751 1330L751 1287.33L738.179 1308.02L695 1234L695.004 1234Z" fill="#010712"/>
<path d="M1807 1234L1835.66 1240.15L1850.62 1266.69L1863 1244.72L1875.38 1266.69L1890.34 1240.15L1919 1234L1919 1234L1863 1330L1863 1287.33L1850.18 1308.02L1807 1234L1807 1234Z" fill="#010712"/>
<path d="M417.004 1234L445.657 1240.15L460.618 1266.69L473 1244.72L485.382 1266.69L500.343 1240.15L528.996 1234L529 1234L473 1330L473 1287.33L460.179 1308.02L417 1234L417.004 1234Z" fill="#010712"/>
<path d="M1529 1234L1557.66 1240.15L1572.62 1266.69L1585 1244.72L1597.38 1266.69L1612.34 1240.15L1641 1234L1641 1234L1585 1330L1585 1287.33L1572.18 1308.02L1529 1234L1529 1234Z" fill="#010712"/>
<path d="M973.004 1234L1001.66 1240.15L1016.62 1266.69L1029 1244.72L1041.38 1266.69L1056.34 1240.15L1085 1234L1085 1234L1029 1330L1029 1287.33L1016.18 1308.02L973 1234L973.004 1234Z" fill="#010712"/>
<path d="M2085 1234L2113.66 1240.15L2128.62 1266.69L2141 1244.72L2153.38 1266.69L2168.34 1240.15L2197 1234L2197 1234L2141 1330L2141 1287.33L2128.18 1308.02L2085 1234L2085 1234Z" fill="#010712"/>
<path d="M139.004 1207L167.657 1200.85L182.618 1174.31L195 1196.28L207.382 1174.31L222.343 1200.85L250.996 1207L251 1207L195 1111L195 1153.67L182.179 1132.98L139 1207L139.004 1207Z" fill="#010712"/>
<path d="M1251 1207L1279.66 1200.85L1294.62 1174.31L1307 1196.28L1319.38 1174.31L1334.34 1200.85L1363 1207L1363 1207L1307 1111L1307 1153.67L1294.18 1132.98L1251 1207L1251 1207Z" fill="#010712"/>
<path d="M695.004 1207L723.657 1200.85L738.618 1174.31L751 1196.28L763.382 1174.31L778.343 1200.85L806.996 1207L807 1207L751 1111L751 1153.67L738.179 1132.98L695 1207L695.004 1207Z" fill="#010712"/>
<path d="M1807 1207L1835.66 1200.85L1850.62 1174.31L1863 1196.28L1875.38 1174.31L1890.34 1200.85L1919 1207L1919 1207L1863 1111L1863 1153.67L1850.18 1132.98L1807 1207L1807 1207Z" fill="#010712"/>
<path d="M417.004 1207L445.657 1200.85L460.618 1174.31L473 1196.28L485.382 1174.31L500.343 1200.85L528.996 1207L529 1207L473 1111L473 1153.67L460.179 1132.98L417 1207L417.004 1207Z" fill="#010712"/>
<path d="M1529 1207L1557.66 1200.85L1572.62 1174.31L1585 1196.28L1597.38 1174.31L1612.34 1200.85L1641 1207L1641 1207L1585 1111L1585 1153.67L1572.18 1132.98L1529 1207L1529 1207Z" fill="#010712"/>
<path d="M973.004 1207L1001.66 1200.85L1016.62 1174.31L1029 1196.28L1041.38 1174.31L1056.34 1200.85L1085 1207L1085 1207L1029 1111L1029 1153.67L1016.18 1132.98L973 1207L973.004 1207Z" fill="#010712"/>
<path d="M2085 1207L2113.66 1200.85L2128.62 1174.31L2141 1196.28L2153.38 1174.31L2168.34 1200.85L2197 1207L2197 1207L2141 1111L2141 1153.67L2128.18 1132.98L2085 1207L2085 1207Z" fill="#010712"/>
<path d="M0.00445183 1234L28.6567 1240.15L43.6177 1266.69L56 1244.72L68.3823 1266.69L83.3434 1240.15L111.996 1234L112 1234L56 1330L56 1287.33L43.1788 1308.02L0 1234L0.00445183 1234Z" fill="#010712"/>
<path d="M1112 1234L1140.66 1240.15L1155.62 1266.69L1168 1244.72L1180.38 1266.69L1195.34 1240.15L1224 1234L1224 1234L1168 1330L1168 1287.33L1155.18 1308.02L1112 1234L1112 1234Z" fill="#010712"/>
<path d="M556.004 1234L584.657 1240.15L599.618 1266.69L612 1244.72L624.382 1266.69L639.343 1240.15L667.996 1234L668 1234L612 1330L612 1287.33L599.179 1308.02L556 1234L556.004 1234Z" fill="#010712"/>
<path d="M1668 1234L1696.66 1240.15L1711.62 1266.69L1724 1244.72L1736.38 1266.69L1751.34 1240.15L1780 1234L1780 1234L1724 1330L1724 1287.33L1711.18 1308.02L1668 1234L1668 1234Z" fill="#010712"/>
<path d="M278.004 1234L306.657 1240.15L321.618 1266.69L334 1244.72L346.382 1266.69L361.343 1240.15L389.996 1234L390 1234L334 1330L334 1287.33L321.179 1308.02L278 1234L278.004 1234Z" fill="#010712"/>
<path d="M1390 1234L1418.66 1240.15L1433.62 1266.69L1446 1244.72L1458.38 1266.69L1473.34 1240.15L1502 1234L1502 1234L1446 1330L1446 1287.33L1433.18 1308.02L1390 1234L1390 1234Z" fill="#010712"/>
<path d="M834.004 1234L862.657 1240.15L877.618 1266.69L890 1244.72L902.382 1266.69L917.343 1240.15L945.996 1234L946 1234L890 1330L890 1287.33L877.179 1308.02L834 1234L834.004 1234Z" fill="#010712"/>
<path d="M1946 1234L1974.66 1240.15L1989.62 1266.69L2002 1244.72L2014.38 1266.69L2029.34 1240.15L2058 1234L2058 1234L2002 1330L2002 1287.33L1989.18 1308.02L1946 1234L1946 1234Z" fill="#010712"/>
<path d="M0.00445183 1207L28.6567 1200.85L43.6177 1174.31L56 1196.28L68.3823 1174.31L83.3434 1200.85L111.996 1207L112 1207L56 1111L56 1153.67L43.1788 1132.98L0 1207L0.00445183 1207Z" fill="#010712"/>
<path d="M1112 1207L1140.66 1200.85L1155.62 1174.31L1168 1196.28L1180.38 1174.31L1195.34 1200.85L1224 1207L1224 1207L1168 1111L1168 1153.67L1155.18 1132.98L1112 1207L1112 1207Z" fill="#010712"/>
<path d="M556.004 1207L584.657 1200.85L599.618 1174.31L612 1196.28L624.382 1174.31L639.343 1200.85L667.996 1207L668 1207L612 1111L612 1153.67L599.179 1132.98L556 1207L556.004 1207Z" fill="#010712"/>
<path d="M1668 1207L1696.66 1200.85L1711.62 1174.31L1724 1196.28L1736.38 1174.31L1751.34 1200.85L1780 1207L1780 1207L1724 1111L1724 1153.67L1711.18 1132.98L1668 1207L1668 1207Z" fill="#010712"/>
<path d="M278.004 1207L306.657 1200.85L321.618 1174.31L334 1196.28L346.382 1174.31L361.343 1200.85L389.996 1207L390 1207L334 1111L334 1153.67L321.179 1132.98L278 1207L278.004 1207Z" fill="#010712"/>
<path d="M1390 1207L1418.66 1200.85L1433.62 1174.31L1446 1196.28L1458.38 1174.31L1473.34 1200.85L1502 1207L1502 1207L1446 1111L1446 1153.67L1433.18 1132.98L1390 1207L1390 1207Z" fill="#010712"/>
<path d="M834.004 1207L862.657 1200.85L877.618 1174.31L890 1196.28L902.382 1174.31L917.343 1200.85L945.996 1207L946 1207L890 1111L890 1153.67L877.179 1132.98L834 1207L834.004 1207Z" fill="#010712"/>
<path d="M1946 1207L1974.66 1200.85L1989.62 1174.31L2002 1196.28L2014.38 1174.31L2029.34 1200.85L2058 1207L2058 1207L2002 1111L2002 1153.67L1989.18 1132.98L1946 1207L1946 1207Z" fill="#010712"/>
<path d="M347.004 1079L375.657 1085.15L390.618 1111.69L403 1089.72L415.382 1111.69L430.343 1085.15L458.996 1079L459 1079L403 1175L403 1132.33L390.179 1153.02L347 1079L347.004 1079Z" fill="#010712"/>
<path d="M1459 1079L1487.66 1085.15L1502.62 1111.69L1515 1089.72L1527.38 1111.69L1542.34 1085.15L1571 1079L1571 1079L1515 1175L1515 1132.33L1502.18 1153.02L1459 1079L1459 1079Z" fill="#010712"/>
<path d="M903.004 1079L931.657 1085.15L946.618 1111.69L959 1089.72L971.382 1111.69L986.343 1085.15L1015 1079L1015 1079L959 1175L959 1132.33L946.179 1153.02L903 1079L903.004 1079Z" fill="#010712"/>
<path d="M2015 1079L2043.66 1085.15L2058.62 1111.69L2071 1089.72L2083.38 1111.69L2098.34 1085.15L2127 1079L2127 1079L2071 1175L2071 1132.33L2058.18 1153.02L2015 1079L2015 1079Z" fill="#010712"/>
<path d="M625.004 1079L653.657 1085.15L668.618 1111.69L681 1089.72L693.382 1111.69L708.343 1085.15L736.996 1079L737 1079L681 1175L681 1132.33L668.179 1153.02L625 1079L625.004 1079Z" fill="#010712"/>
<path d="M1737 1079L1765.66 1085.15L1780.62 1111.69L1793 1089.72L1805.38 1111.69L1820.34 1085.15L1849 1079L1849 1079L1793 1175L1793 1132.33L1780.18 1153.02L1737 1079L1737 1079Z" fill="#010712"/>
<path d="M1181 1079L1209.66 1085.15L1224.62 1111.69L1237 1089.72L1249.38 1111.69L1264.34 1085.15L1293 1079L1293 1079L1237 1175L1237 1132.33L1224.18 1153.02L1181 1079L1181 1079Z" fill="#010712"/>
<path d="M2293 1079L2321.66 1085.15L2336.62 1111.69L2349 1089.72L2361.38 1111.69L2376.34 1085.15L2405 1079L2405 1079L2349 1175L2349 1132.33L2336.18 1153.02L2293 1079L2293 1079Z" fill="#010712"/>
<path d="M347.004 1052L375.657 1045.85L390.618 1019.31L403 1041.28L415.382 1019.31L430.343 1045.85L458.996 1052L459 1052L403 956L403 998.667L390.179 977.979L347 1052L347.004 1052Z" fill="#010712"/>
<path d="M1459 1052L1487.66 1045.85L1502.62 1019.31L1515 1041.28L1527.38 1019.31L1542.34 1045.85L1571 1052L1571 1052L1515 956L1515 998.667L1502.18 977.979L1459 1052L1459 1052Z" fill="#010712"/>
<path d="M903.004 1052L931.657 1045.85L946.618 1019.31L959 1041.28L971.382 1019.31L986.343 1045.85L1015 1052L1015 1052L959 956L959 998.667L946.179 977.979L903 1052L903.004 1052Z" fill="#010712"/>
<path d="M2015 1052L2043.66 1045.85L2058.62 1019.31L2071 1041.28L2083.38 1019.31L2098.34 1045.85L2127 1052L2127 1052L2071 956L2071 998.667L2058.18 977.979L2015 1052L2015 1052Z" fill="#010712"/>
<path d="M625.004 1052L653.657 1045.85L668.618 1019.31L681 1041.28L693.382 1019.31L708.343 1045.85L736.996 1052L737 1052L681 956L681 998.667L668.179 977.979L625 1052L625.004 1052Z" fill="#010712"/>
<path d="M1737 1052L1765.66 1045.85L1780.62 1019.31L1793 1041.28L1805.38 1019.31L1820.34 1045.85L1849 1052L1849 1052L1793 956L1793 998.667L1780.18 977.979L1737 1052L1737 1052Z" fill="#010712"/>
<path d="M1181 1052L1209.66 1045.85L1224.62 1019.31L1237 1041.28L1249.38 1019.31L1264.34 1045.85L1293 1052L1293 1052L1237 956L1237 998.667L1224.18 977.979L1181 1052L1181 1052Z" fill="#010712"/>
<path d="M2293 1052L2321.66 1045.85L2336.62 1019.31L2349 1041.28L2361.38 1019.31L2376.34 1045.85L2405 1052L2405 1052L2349 956L2349 998.667L2336.18 977.979L2293 1052L2293 1052Z" fill="#010712"/>
<path d="M208.004 1079L236.657 1085.15L251.618 1111.69L264 1089.72L276.382 1111.69L291.343 1085.15L319.996 1079L320 1079L264 1175L264 1132.33L251.179 1153.02L208 1079L208.004 1079Z" fill="#010712"/>
<path d="M1320 1079L1348.66 1085.15L1363.62 1111.69L1376 1089.72L1388.38 1111.69L1403.34 1085.15L1432 1079L1432 1079L1376 1175L1376 1132.33L1363.18 1153.02L1320 1079L1320 1079Z" fill="#010712"/>
<path d="M764.004 1079L792.657 1085.15L807.618 1111.69L820 1089.72L832.382 1111.69L847.343 1085.15L875.996 1079L876 1079L820 1175L820 1132.33L807.179 1153.02L764 1079L764.004 1079Z" fill="#010712"/>
<path d="M1876 1079L1904.66 1085.15L1919.62 1111.69L1932 1089.72L1944.38 1111.69L1959.34 1085.15L1988 1079L1988 1079L1932 1175L1932 1132.33L1919.18 1153.02L1876 1079L1876 1079Z" fill="#010712"/>
<path d="M486.004 1079L514.657 1085.15L529.618 1111.69L542 1089.72L554.382 1111.69L569.343 1085.15L597.996 1079L598 1079L542 1175L542 1132.33L529.179 1153.02L486 1079L486.004 1079Z" fill="#010712"/>
<path d="M1598 1079L1626.66 1085.15L1641.62 1111.69L1654 1089.72L1666.38 1111.69L1681.34 1085.15L1710 1079L1710 1079L1654 1175L1654 1132.33L1641.18 1153.02L1598 1079L1598 1079Z" fill="#010712"/>
<path d="M1042 1079L1070.66 1085.15L1085.62 1111.69L1098 1089.72L1110.38 1111.69L1125.34 1085.15L1154 1079L1154 1079L1098 1175L1098 1132.33L1085.18 1153.02L1042 1079L1042 1079Z" fill="#010712"/>
<path d="M2154 1079L2182.66 1085.15L2197.62 1111.69L2210 1089.72L2222.38 1111.69L2237.34 1085.15L2266 1079L2266 1079L2210 1175L2210 1132.33L2197.18 1153.02L2154 1079L2154 1079Z" fill="#010712"/>
<path d="M208.004 1052L236.657 1045.85L251.618 1019.31L264 1041.28L276.382 1019.31L291.343 1045.85L319.996 1052L320 1052L264 956L264 998.667L251.179 977.979L208 1052L208.004 1052Z" fill="#010712"/>
<path d="M1320 1052L1348.66 1045.85L1363.62 1019.31L1376 1041.28L1388.38 1019.31L1403.34 1045.85L1432 1052L1432 1052L1376 956L1376 998.667L1363.18 977.979L1320 1052L1320 1052Z" fill="#010712"/>
<path d="M764.004 1052L792.657 1045.85L807.618 1019.31L820 1041.28L832.382 1019.31L847.343 1045.85L875.996 1052L876 1052L820 956L820 998.667L807.179 977.979L764 1052L764.004 1052Z" fill="#010712"/>
<path d="M1876 1052L1904.66 1045.85L1919.62 1019.31L1932 1041.28L1944.38 1019.31L1959.34 1045.85L1988 1052L1988 1052L1932 956L1932 998.667L1919.18 977.979L1876 1052L1876 1052Z" fill="#010712"/>
<path d="M486.004 1052L514.657 1045.85L529.618 1019.31L542 1041.28L554.382 1019.31L569.343 1045.85L597.996 1052L598 1052L542 956L542 998.667L529.179 977.979L486 1052L486.004 1052Z" fill="#010712"/>
<path d="M1598 1052L1626.66 1045.85L1641.62 1019.31L1654 1041.28L1666.38 1019.31L1681.34 1045.85L1710 1052L1710 1052L1654 956L1654 998.667L1641.18 977.979L1598 1052L1598 1052Z" fill="#010712"/>
<path d="M1042 1052L1070.66 1045.85L1085.62 1019.31L1098 1041.28L1110.38 1019.31L1125.34 1045.85L1154 1052L1154 1052L1098 956L1098 998.667L1085.18 977.979L1042 1052L1042 1052Z" fill="#010712"/>
<path d="M2154 1052L2182.66 1045.85L2197.62 1019.31L2210 1041.28L2222.38 1019.31L2237.34 1045.85L2266 1052L2266 1052L2210 956L2210 998.667L2197.18 977.979L2154 1052L2154 1052Z" fill="#010712"/>
<path d="M139.004 903L167.657 909.148L182.618 935.688L195 913.722L207.382 935.688L222.343 909.148L250.996 903L251 903L195 999L195 956.333L182.179 977.021L139 903L139.004 903Z" fill="#010712"/>
<path d="M1251 903L1279.66 909.148L1294.62 935.688L1307 913.722L1319.38 935.688L1334.34 909.148L1363 903L1363 903L1307 999L1307 956.333L1294.18 977.021L1251 903L1251 903Z" fill="#010712"/>
<path d="M695.004 903L723.657 909.148L738.618 935.688L751 913.722L763.382 935.688L778.343 909.148L806.996 903L807 903L751 999L751 956.333L738.179 977.021L695 903L695.004 903Z" fill="#010712"/>
<path d="M1807 903L1835.66 909.148L1850.62 935.688L1863 913.722L1875.38 935.688L1890.34 909.148L1919 903L1919 903L1863 999L1863 956.333L1850.18 977.021L1807 903L1807 903Z" fill="#010712"/>
<path d="M417.004 903L445.657 909.148L460.618 935.688L473 913.722L485.382 935.688L500.343 909.148L528.996 903L529 903L473 999L473 956.333L460.179 977.021L417 903L417.004 903Z" fill="#010712"/>
<path d="M1529 903L1557.66 909.148L1572.62 935.688L1585 913.722L1597.38 935.688L1612.34 909.148L1641 903L1641 903L1585 999L1585 956.333L1572.18 977.021L1529 903L1529 903Z" fill="#010712"/>
<path d="M973.004 903L1001.66 909.148L1016.62 935.688L1029 913.722L1041.38 935.688L1056.34 909.148L1085 903L1085 903L1029 999L1029 956.333L1016.18 977.021L973 903L973.004 903Z" fill="#010712"/>
<path d="M2085 903L2113.66 909.148L2128.62 935.688L2141 913.722L2153.38 935.688L2168.34 909.148L2197 903L2197 903L2141 999L2141 956.333L2128.18 977.021L2085 903L2085 903Z" fill="#010712"/>
<path d="M139.004 876L167.657 869.852L182.618 843.312L195 865.278L207.382 843.312L222.343 869.852L250.996 876L251 876L195 780L195 822.667L182.179 801.979L139 876L139.004 876Z" fill="#010712"/>
<path d="M1251 876L1279.66 869.852L1294.62 843.312L1307 865.278L1319.38 843.312L1334.34 869.852L1363 876L1363 876L1307 780L1307 822.667L1294.18 801.979L1251 876L1251 876Z" fill="#010712"/>
<path d="M695.004 876L723.657 869.852L738.618 843.312L751 865.278L763.382 843.312L778.343 869.852L806.996 876L807 876L751 780L751 822.667L738.179 801.979L695 876L695.004 876Z" fill="#010712"/>
<path d="M1807 876L1835.66 869.852L1850.62 843.312L1863 865.278L1875.38 843.312L1890.34 869.852L1919 876L1919 876L1863 780L1863 822.667L1850.18 801.979L1807 876L1807 876Z" fill="#010712"/>
<path d="M417.004 876L445.657 869.852L460.618 843.312L473 865.278L485.382 843.312L500.343 869.852L528.996 876L529 876L473 780L473 822.667L460.179 801.979L417 876L417.004 876Z" fill="#010712"/>
<path d="M1529 876L1557.66 869.852L1572.62 843.312L1585 865.278L1597.38 843.312L1612.34 869.852L1641 876L1641 876L1585 780L1585 822.667L1572.18 801.979L1529 876L1529 876Z" fill="#010712"/>
<path d="M973.004 876L1001.66 869.852L1016.62 843.312L1029 865.278L1041.38 843.312L1056.34 869.852L1085 876L1085 876L1029 780L1029 822.667L1016.18 801.979L973 876L973.004 876Z" fill="#010712"/>
<path d="M2085 876L2113.66 869.852L2128.62 843.312L2141 865.278L2153.38 843.312L2168.34 869.852L2197 876L2197 876L2141 780L2141 822.667L2128.18 801.979L2085 876L2085 876Z" fill="#010712"/>
<path d="M0.00445183 903L28.6567 909.148L43.6177 935.688L56 913.722L68.3823 935.688L83.3434 909.148L111.996 903L112 903L56 999L56 956.333L43.1788 977.021L0 903L0.00445183 903Z" fill="#010712"/>
<path d="M1112 903L1140.66 909.148L1155.62 935.688L1168 913.722L1180.38 935.688L1195.34 909.148L1224 903L1224 903L1168 999L1168 956.333L1155.18 977.021L1112 903L1112 903Z" fill="#010712"/>
<path d="M556.004 903L584.657 909.148L599.618 935.688L612 913.722L624.382 935.688L639.343 909.148L667.996 903L668 903L612 999L612 956.333L599.179 977.021L556 903L556.004 903Z" fill="#010712"/>
<path d="M1668 903L1696.66 909.148L1711.62 935.688L1724 913.722L1736.38 935.688L1751.34 909.148L1780 903L1780 903L1724 999L1724 956.333L1711.18 977.021L1668 903L1668 903Z" fill="#010712"/>
<path d="M278.004 903L306.657 909.148L321.618 935.688L334 913.722L346.382 935.688L361.343 909.148L389.996 903L390 903L334 999L334 956.333L321.179 977.021L278 903L278.004 903Z" fill="#010712"/>
<path d="M1390 903L1418.66 909.148L1433.62 935.688L1446 913.722L1458.38 935.688L1473.34 909.148L1502 903L1502 903L1446 999L1446 956.333L1433.18 977.021L1390 903L1390 903Z" fill="#010712"/>
<path d="M834.004 903L862.657 909.148L877.618 935.688L890 913.722L902.382 935.688L917.343 909.148L945.996 903L946 903L890 999L890 956.333L877.179 977.021L834 903L834.004 903Z" fill="#010712"/>
<path d="M1946 903L1974.66 909.148L1989.62 935.688L2002 913.722L2014.38 935.688L2029.34 909.148L2058 903L2058 903L2002 999L2002 956.333L1989.18 977.021L1946 903L1946 903Z" fill="#010712"/>
<path d="M0.00445183 876L28.6567 869.852L43.6177 843.312L56 865.278L68.3823 843.312L83.3434 869.852L111.996 876L112 876L56 780L56 822.667L43.1788 801.979L0 876L0.00445183 876Z" fill="#010712"/>
<path d="M1112 876L1140.66 869.852L1155.62 843.312L1168 865.278L1180.38 843.312L1195.34 869.852L1224 876L1224 876L1168 780L1168 822.667L1155.18 801.979L1112 876L1112 876Z" fill="#010712"/>
<path d="M556.004 876L584.657 869.852L599.618 843.312L612 865.278L624.382 843.312L639.343 869.852L667.996 876L668 876L612 780L612 822.667L599.179 801.979L556 876L556.004 876Z" fill="#010712"/>
<path d="M1668 876L1696.66 869.852L1711.62 843.312L1724 865.278L1736.38 843.312L1751.34 869.852L1780 876L1780 876L1724 780L1724 822.667L1711.18 801.979L1668 876L1668 876Z" fill="#010712"/>
<path d="M278.004 876L306.657 869.852L321.618 843.312L334 865.278L346.382 843.312L361.343 869.852L389.996 876L390 876L334 780L334 822.667L321.179 801.979L278 876L278.004 876Z" fill="#010712"/>
<path d="M1390 876L1418.66 869.852L1433.62 843.312L1446 865.278L1458.38 843.312L1473.34 869.852L1502 876L1502 876L1446 780L1446 822.667L1433.18 801.979L1390 876L1390 876Z" fill="#010712"/>
<path d="M834.004 876L862.657 869.852L877.618 843.312L890 865.278L902.382 843.312L917.343 869.852L945.996 876L946 876L890 780L890 822.667L877.179 801.979L834 876L834.004 876Z" fill="#010712"/>
<path d="M1946 876L1974.66 869.852L1989.62 843.312L2002 865.278L2014.38 843.312L2029.34 869.852L2058 876L2058 876L2002 780L2002 822.667L1989.18 801.979L1946 876L1946 876Z" fill="#010712"/>
<path d="M347.004 747L375.657 753.148L390.618 779.688L403 757.722L415.382 779.688L430.343 753.148L458.996 747L459 747L403 843L403 800.333L390.179 821.021L347 747L347.004 747Z" fill="#010712"/>
<path d="M1459 747L1487.66 753.148L1502.62 779.688L1515 757.722L1527.38 779.688L1542.34 753.148L1571 747L1571 747L1515 843L1515 800.333L1502.18 821.021L1459 747L1459 747Z" fill="#010712"/>
<path d="M903.004 747L931.657 753.148L946.618 779.688L959 757.722L971.382 779.688L986.343 753.148L1015 747L1015 747L959 843L959 800.333L946.179 821.021L903 747L903.004 747Z" fill="#010712"/>
<path d="M2015 747L2043.66 753.148L2058.62 779.688L2071 757.722L2083.38 779.688L2098.34 753.148L2127 747L2127 747L2071 843L2071 800.333L2058.18 821.021L2015 747L2015 747Z" fill="#010712"/>
<path d="M625.004 747L653.657 753.148L668.618 779.688L681 757.722L693.382 779.688L708.343 753.148L736.996 747L737 747L681 843L681 800.333L668.179 821.021L625 747L625.004 747Z" fill="#010712"/>
<path d="M1737 747L1765.66 753.148L1780.62 779.688L1793 757.722L1805.38 779.688L1820.34 753.148L1849 747L1849 747L1793 843L1793 800.333L1780.18 821.021L1737 747L1737 747Z" fill="#010712"/>
<path d="M1181 747L1209.66 753.148L1224.62 779.688L1237 757.722L1249.38 779.688L1264.34 753.148L1293 747L1293 747L1237 843L1237 800.333L1224.18 821.021L1181 747L1181 747Z" fill="#010712"/>
<path d="M2293 747L2321.66 753.148L2336.62 779.688L2349 757.722L2361.38 779.688L2376.34 753.148L2405 747L2405 747L2349 843L2349 800.333L2336.18 821.021L2293 747L2293 747Z" fill="#010712"/>
<path d="M347.004 720L375.657 713.852L390.618 687.312L403 709.278L415.382 687.312L430.343 713.852L458.996 720L459 720L403 624L403 666.667L390.179 645.979L347 720L347.004 720Z" fill="#010712"/>
<path d="M1459 720L1487.66 713.852L1502.62 687.312L1515 709.278L1527.38 687.312L1542.34 713.852L1571 720L1571 720L1515 624L1515 666.667L1502.18 645.979L1459 720L1459 720Z" fill="#010712"/>
<path d="M903.004 720L931.657 713.852L946.618 687.312L959 709.278L971.382 687.312L986.343 713.852L1015 720L1015 720L959 624L959 666.667L946.179 645.979L903 720L903.004 720Z" fill="#010712"/>
<path d="M2015 720L2043.66 713.852L2058.62 687.312L2071 709.278L2083.38 687.312L2098.34 713.852L2127 720L2127 720L2071 624L2071 666.667L2058.18 645.979L2015 720L2015 720Z" fill="#010712"/>
<path d="M625.004 720L653.657 713.852L668.618 687.312L681 709.278L693.382 687.312L708.343 713.852L736.996 720L737 720L681 624L681 666.667L668.179 645.979L625 720L625.004 720Z" fill="#010712"/>
<path d="M1737 720L1765.66 713.852L1780.62 687.312L1793 709.278L1805.38 687.312L1820.34 713.852L1849 720L1849 720L1793 624L1793 666.667L1780.18 645.979L1737 720L1737 720Z" fill="#010712"/>
<path d="M1181 720L1209.66 713.852L1224.62 687.312L1237 709.278L1249.38 687.312L1264.34 713.852L1293 720L1293 720L1237 624L1237 666.667L1224.18 645.979L1181 720L1181 720Z" fill="#010712"/>
<path d="M2293 720L2321.66 713.852L2336.62 687.312L2349 709.278L2361.38 687.312L2376.34 713.852L2405 720L2405 720L2349 624L2349 666.667L2336.18 645.979L2293 720L2293 720Z" fill="#010712"/>
<path d="M208.004 747L236.657 753.148L251.618 779.688L264 757.722L276.382 779.688L291.343 753.148L319.996 747L320 747L264 843L264 800.333L251.179 821.021L208 747L208.004 747Z" fill="#010712"/>
<path d="M1320 747L1348.66 753.148L1363.62 779.688L1376 757.722L1388.38 779.688L1403.34 753.148L1432 747L1432 747L1376 843L1376 800.333L1363.18 821.021L1320 747L1320 747Z" fill="#010712"/>
<path d="M764.004 747L792.657 753.148L807.618 779.688L820 757.722L832.382 779.688L847.343 753.148L875.996 747L876 747L820 843L820 800.333L807.179 821.021L764 747L764.004 747Z" fill="#010712"/>
<path d="M1876 747L1904.66 753.148L1919.62 779.688L1932 757.722L1944.38 779.688L1959.34 753.148L1988 747L1988 747L1932 843L1932 800.333L1919.18 821.021L1876 747L1876 747Z" fill="#010712"/>
<path d="M486.004 747L514.657 753.148L529.618 779.688L542 757.722L554.382 779.688L569.343 753.148L597.996 747L598 747L542 843L542 800.333L529.179 821.021L486 747L486.004 747Z" fill="#010712"/>
<path d="M1598 747L1626.66 753.148L1641.62 779.688L1654 757.722L1666.38 779.688L1681.34 753.148L1710 747L1710 747L1654 843L1654 800.333L1641.18 821.021L1598 747L1598 747Z" fill="#010712"/>
<path d="M1042 747L1070.66 753.148L1085.62 779.688L1098 757.722L1110.38 779.688L1125.34 753.148L1154 747L1154 747L1098 843L1098 800.333L1085.18 821.021L1042 747L1042 747Z" fill="#010712"/>
<path d="M2154 747L2182.66 753.148L2197.62 779.688L2210 757.722L2222.38 779.688L2237.34 753.148L2266 747L2266 747L2210 843L2210 800.333L2197.18 821.021L2154 747L2154 747Z" fill="#010712"/>
<path d="M208.004 720L236.657 713.852L251.618 687.312L264 709.278L276.382 687.312L291.343 713.852L319.996 720L320 720L264 624L264 666.667L251.179 645.979L208 720L208.004 720Z" fill="#010712"/>
<path d="M1320 720L1348.66 713.852L1363.62 687.312L1376 709.278L1388.38 687.312L1403.34 713.852L1432 720L1432 720L1376 624L1376 666.667L1363.18 645.979L1320 720L1320 720Z" fill="#010712"/>
<path d="M764.004 720L792.657 713.852L807.618 687.312L820 709.278L832.382 687.312L847.343 713.852L875.996 720L876 720L820 624L820 666.667L807.179 645.979L764 720L764.004 720Z" fill="#010712"/>
<path d="M1876 720L1904.66 713.852L1919.62 687.312L1932 709.278L1944.38 687.312L1959.34 713.852L1988 720L1988 720L1932 624L1932 666.667L1919.18 645.979L1876 720L1876 720Z" fill="#010712"/>
<path d="M486.004 720L514.657 713.852L529.618 687.312L542 709.278L554.382 687.312L569.343 713.852L597.996 720L598 720L542 624L542 666.667L529.179 645.979L486 720L486.004 720Z" fill="#010712"/>
<path d="M1598 720L1626.66 713.852L1641.62 687.312L1654 709.278L1666.38 687.312L1681.34 713.852L1710 720L1710 720L1654 624L1654 666.667L1641.18 645.979L1598 720L1598 720Z" fill="#010712"/>
<path d="M1042 720L1070.66 713.852L1085.62 687.312L1098 709.278L1110.38 687.312L1125.34 713.852L1154 720L1154 720L1098 624L1098 666.667L1085.18 645.979L1042 720L1042 720Z" fill="#010712"/>
<path d="M2154 720L2182.66 713.852L2197.62 687.312L2210 709.278L2222.38 687.312L2237.34 713.852L2266 720L2266 720L2210 624L2210 666.667L2197.18 645.979L2154 720L2154 720Z" fill="#010712"/>
<path d="M139.004 591L167.657 597.148L182.618 623.688L195 601.722L207.382 623.688L222.343 597.148L250.996 591L251 591L195 687L195 644.333L182.179 665.021L139 591L139.004 591Z" fill="#010712"/>
<path d="M1251 591L1279.66 597.148L1294.62 623.688L1307 601.722L1319.38 623.688L1334.34 597.148L1363 591L1363 591L1307 687L1307 644.333L1294.18 665.021L1251 591L1251 591Z" fill="#010712"/>
<path d="M695.004 591L723.657 597.148L738.618 623.688L751 601.722L763.382 623.688L778.343 597.148L806.996 591L807 591L751 687L751 644.333L738.179 665.021L695 591L695.004 591Z" fill="#010712"/>
<path d="M1807 591L1835.66 597.148L1850.62 623.688L1863 601.722L1875.38 623.688L1890.34 597.148L1919 591L1919 591L1863 687L1863 644.333L1850.18 665.021L1807 591L1807 591Z" fill="#010712"/>
<path d="M417.004 591L445.657 597.148L460.618 623.688L473 601.722L485.382 623.688L500.343 597.148L528.996 591L529 591L473 687L473 644.333L460.179 665.021L417 591L417.004 591Z" fill="#010712"/>
<path d="M1529 591L1557.66 597.148L1572.62 623.688L1585 601.722L1597.38 623.688L1612.34 597.148L1641 591L1641 591L1585 687L1585 644.333L1572.18 665.021L1529 591L1529 591Z" fill="#010712"/>
<path d="M973.004 591L1001.66 597.148L1016.62 623.688L1029 601.722L1041.38 623.688L1056.34 597.148L1085 591L1085 591L1029 687L1029 644.333L1016.18 665.021L973 591L973.004 591Z" fill="#010712"/>
<path d="M2085 591L2113.66 597.148L2128.62 623.688L2141 601.722L2153.38 623.688L2168.34 597.148L2197 591L2197 591L2141 687L2141 644.333L2128.18 665.021L2085 591L2085 591Z" fill="#010712"/>
<path d="M139.004 564L167.657 557.852L182.618 531.312L195 553.278L207.382 531.312L222.343 557.852L250.996 564L251 564L195 468L195 510.667L182.179 489.979L139 564L139.004 564Z" fill="#010712"/>
<path d="M1251 564L1279.66 557.852L1294.62 531.312L1307 553.278L1319.38 531.312L1334.34 557.852L1363 564L1363 564L1307 468L1307 510.667L1294.18 489.979L1251 564L1251 564Z" fill="#010712"/>
<path d="M695.004 564L723.657 557.852L738.618 531.312L751 553.278L763.382 531.312L778.343 557.852L806.996 564L807 564L751 468L751 510.667L738.179 489.979L695 564L695.004 564Z" fill="#010712"/>
<path d="M1807 564L1835.66 557.852L1850.62 531.312L1863 553.278L1875.38 531.312L1890.34 557.852L1919 564L1919 564L1863 468L1863 510.667L1850.18 489.979L1807 564L1807 564Z" fill="#010712"/>
<path d="M417.004 564L445.657 557.852L460.618 531.312L473 553.278L485.382 531.312L500.343 557.852L528.996 564L529 564L473 468L473 510.667L460.179 489.979L417 564L417.004 564Z" fill="#010712"/>
<path d="M1529 564L1557.66 557.852L1572.62 531.312L1585 553.278L1597.38 531.312L1612.34 557.852L1641 564L1641 564L1585 468L1585 510.667L1572.18 489.979L1529 564L1529 564Z" fill="#010712"/>
<path d="M973.004 564L1001.66 557.852L1016.62 531.312L1029 553.278L1041.38 531.312L1056.34 557.852L1085 564L1085 564L1029 468L1029 510.667L1016.18 489.979L973 564L973.004 564Z" fill="#010712"/>
<path d="M2085 564L2113.66 557.852L2128.62 531.312L2141 553.278L2153.38 531.312L2168.34 557.852L2197 564L2197 564L2141 468L2141 510.667L2128.18 489.979L2085 564L2085 564Z" fill="#010712"/>
<path d="M0.00445183 591L28.6567 597.148L43.6177 623.688L56 601.722L68.3823 623.688L83.3434 597.148L111.996 591L112 591L56 687L56 644.333L43.1788 665.021L0 591L0.00445183 591Z" fill="#010712"/>
<path d="M1112 591L1140.66 597.148L1155.62 623.688L1168 601.722L1180.38 623.688L1195.34 597.148L1224 591L1224 591L1168 687L1168 644.333L1155.18 665.021L1112 591L1112 591Z" fill="#010712"/>
<path d="M556.004 591L584.657 597.148L599.618 623.688L612 601.722L624.382 623.688L639.343 597.148L667.996 591L668 591L612 687L612 644.333L599.179 665.021L556 591L556.004 591Z" fill="#010712"/>
<path d="M1668 591L1696.66 597.148L1711.62 623.688L1724 601.722L1736.38 623.688L1751.34 597.148L1780 591L1780 591L1724 687L1724 644.333L1711.18 665.021L1668 591L1668 591Z" fill="#010712"/>
<path d="M278.004 591L306.657 597.148L321.618 623.688L334 601.722L346.382 623.688L361.343 597.148L389.996 591L390 591L334 687L334 644.333L321.179 665.021L278 591L278.004 591Z" fill="#010712"/>
<path d="M1390 591L1418.66 597.148L1433.62 623.688L1446 601.722L1458.38 623.688L1473.34 597.148L1502 591L1502 591L1446 687L1446 644.333L1433.18 665.021L1390 591L1390 591Z" fill="#010712"/>
<path d="M834.004 591L862.657 597.148L877.618 623.688L890 601.722L902.382 623.688L917.343 597.148L945.996 591L946 591L890 687L890 644.333L877.179 665.021L834 591L834.004 591Z" fill="#010712"/>
<path d="M1946 591L1974.66 597.148L1989.62 623.688L2002 601.722L2014.38 623.688L2029.34 597.148L2058 591L2058 591L2002 687L2002 644.333L1989.18 665.021L1946 591L1946 591Z" fill="#010712"/>
<path d="M0.00445183 564L28.6567 557.852L43.6177 531.312L56 553.278L68.3823 531.312L83.3434 557.852L111.996 564L112 564L56 468L56 510.667L43.1788 489.979L0 564L0.00445183 564Z" fill="#010712"/>
<path d="M1112 564L1140.66 557.852L1155.62 531.312L1168 553.278L1180.38 531.312L1195.34 557.852L1224 564L1224 564L1168 468L1168 510.667L1155.18 489.979L1112 564L1112 564Z" fill="#010712"/>
<path d="M556.004 564L584.657 557.852L599.618 531.312L612 553.278L624.382 531.312L639.343 557.852L667.996 564L668 564L612 468L612 510.667L599.179 489.979L556 564L556.004 564Z" fill="#010712"/>
<path d="M1668 564L1696.66 557.852L1711.62 531.312L1724 553.278L1736.38 531.312L1751.34 557.852L1780 564L1780 564L1724 468L1724 510.667L1711.18 489.979L1668 564L1668 564Z" fill="#010712"/>
<path d="M278.004 564L306.657 557.852L321.618 531.312L334 553.278L346.382 531.312L361.343 557.852L389.996 564L390 564L334 468L334 510.667L321.179 489.979L278 564L278.004 564Z" fill="#010712"/>
<path d="M1390 564L1418.66 557.852L1433.62 531.312L1446 553.278L1458.38 531.312L1473.34 557.852L1502 564L1502 564L1446 468L1446 510.667L1433.18 489.979L1390 564L1390 564Z" fill="#010712"/>
<path d="M834.004 564L862.657 557.852L877.618 531.312L890 553.278L902.382 531.312L917.343 557.852L945.996 564L946 564L890 468L890 510.667L877.179 489.979L834 564L834.004 564Z" fill="#010712"/>
<path d="M1946 564L1974.66 557.852L1989.62 531.312L2002 553.278L2014.38 531.312L2029.34 557.852L2058 564L2058 564L2002 468L2002 510.667L1989.18 489.979L1946 564L1946 564Z" fill="#010712"/>
<path d="M346.004 435L374.657 441.148L389.618 467.688L402 445.722L414.382 467.688L429.343 441.148L457.996 435L458 435L402 531L402 488.333L389.179 509.021L346 435L346.004 435Z" fill="#010712"/>
<path d="M1458 435L1486.66 441.148L1501.62 467.688L1514 445.722L1526.38 467.688L1541.34 441.148L1570 435L1570 435L1514 531L1514 488.333L1501.18 509.021L1458 435L1458 435Z" fill="#010712"/>
<path d="M902.004 435L930.657 441.148L945.618 467.688L958 445.722L970.382 467.688L985.343 441.148L1014 435L1014 435L958 531L958 488.333L945.179 509.021L902 435L902.004 435Z" fill="#010712"/>
<path d="M2014 435L2042.66 441.148L2057.62 467.688L2070 445.722L2082.38 467.688L2097.34 441.148L2126 435L2126 435L2070 531L2070 488.333L2057.18 509.021L2014 435L2014 435Z" fill="#010712"/>
<path d="M624.004 435L652.657 441.148L667.618 467.688L680 445.722L692.382 467.688L707.343 441.148L735.996 435L736 435L680 531L680 488.333L667.179 509.021L624 435L624.004 435Z" fill="#010712"/>
<path d="M1736 435L1764.66 441.148L1779.62 467.688L1792 445.722L1804.38 467.688L1819.34 441.148L1848 435L1848 435L1792 531L1792 488.333L1779.18 509.021L1736 435L1736 435Z" fill="#010712"/>
<path d="M1180 435L1208.66 441.148L1223.62 467.688L1236 445.722L1248.38 467.688L1263.34 441.148L1292 435L1292 435L1236 531L1236 488.333L1223.18 509.021L1180 435L1180 435Z" fill="#010712"/>
<path d="M2292 435L2320.66 441.148L2335.62 467.688L2348 445.722L2360.38 467.688L2375.34 441.148L2404 435L2404 435L2348 531L2348 488.333L2335.18 509.021L2292 435L2292 435Z" fill="#010712"/>
<path d="M346.004 408L374.657 401.852L389.618 375.312L402 397.278L414.382 375.312L429.343 401.852L457.996 408L458 408L402 312L402 354.667L389.179 333.979L346 408L346.004 408Z" fill="#010712"/>
<path d="M1458 408L1486.66 401.852L1501.62 375.312L1514 397.278L1526.38 375.312L1541.34 401.852L1570 408L1570 408L1514 312L1514 354.667L1501.18 333.979L1458 408L1458 408Z" fill="#010712"/>
<path d="M902.004 408L930.657 401.852L945.618 375.312L958 397.278L970.382 375.312L985.343 401.852L1014 408L1014 408L958 312L958 354.667L945.179 333.979L902 408L902.004 408Z" fill="#010712"/>
<path d="M2014 408L2042.66 401.852L2057.62 375.312L2070 397.278L2082.38 375.312L2097.34 401.852L2126 408L2126 408L2070 312L2070 354.667L2057.18 333.979L2014 408L2014 408Z" fill="#010712"/>
<path d="M624.004 408L652.657 401.852L667.618 375.312L680 397.278L692.382 375.312L707.343 401.852L735.996 408L736 408L680 312L680 354.667L667.179 333.979L624 408L624.004 408Z" fill="#010712"/>
<path d="M1736 408L1764.66 401.852L1779.62 375.312L1792 397.278L1804.38 375.312L1819.34 401.852L1848 408L1848 408L1792 312L1792 354.667L1779.18 333.979L1736 408L1736 408Z" fill="#010712"/>
<path d="M1180 408L1208.66 401.852L1223.62 375.312L1236 397.278L1248.38 375.312L1263.34 401.852L1292 408L1292 408L1236 312L1236 354.667L1223.18 333.979L1180 408L1180 408Z" fill="#010712"/>
<path d="M2292 408L2320.66 401.852L2335.62 375.312L2348 397.278L2360.38 375.312L2375.34 401.852L2404 408L2404 408L2348 312L2348 354.667L2335.18 333.979L2292 408L2292 408Z" fill="#010712"/>
<path d="M207.004 435L235.657 441.148L250.618 467.688L263 445.722L275.382 467.688L290.343 441.148L318.996 435L319 435L263 531L263 488.333L250.179 509.021L207 435L207.004 435Z" fill="#010712"/>
<path d="M1319 435L1347.66 441.148L1362.62 467.688L1375 445.722L1387.38 467.688L1402.34 441.148L1431 435L1431 435L1375 531L1375 488.333L1362.18 509.021L1319 435L1319 435Z" fill="#010712"/>
<path d="M763.004 435L791.657 441.148L806.618 467.688L819 445.722L831.382 467.688L846.343 441.148L874.996 435L875 435L819 531L819 488.333L806.179 509.021L763 435L763.004 435Z" fill="#010712"/>
<path d="M1875 435L1903.66 441.148L1918.62 467.688L1931 445.722L1943.38 467.688L1958.34 441.148L1987 435L1987 435L1931 531L1931 488.333L1918.18 509.021L1875 435L1875 435Z" fill="#010712"/>
<path d="M485.004 435L513.657 441.148L528.618 467.688L541 445.722L553.382 467.688L568.343 441.148L596.996 435L597 435L541 531L541 488.333L528.179 509.021L485 435L485.004 435Z" fill="#010712"/>
<path d="M1597 435L1625.66 441.148L1640.62 467.688L1653 445.722L1665.38 467.688L1680.34 441.148L1709 435L1709 435L1653 531L1653 488.333L1640.18 509.021L1597 435L1597 435Z" fill="#010712"/>
<path d="M1041 435L1069.66 441.148L1084.62 467.688L1097 445.722L1109.38 467.688L1124.34 441.148L1153 435L1153 435L1097 531L1097 488.333L1084.18 509.021L1041 435L1041 435Z" fill="#010712"/>
<path d="M2153 435L2181.66 441.148L2196.62 467.688L2209 445.722L2221.38 467.688L2236.34 441.148L2265 435L2265 435L2209 531L2209 488.333L2196.18 509.021L2153 435L2153 435Z" fill="#010712"/>
<path d="M207.004 408L235.657 401.852L250.618 375.312L263 397.278L275.382 375.312L290.343 401.852L318.996 408L319 408L263 312L263 354.667L250.179 333.979L207 408L207.004 408Z" fill="#010712"/>
<path d="M1319 408L1347.66 401.852L1362.62 375.312L1375 397.278L1387.38 375.312L1402.34 401.852L1431 408L1431 408L1375 312L1375 354.667L1362.18 333.979L1319 408L1319 408Z" fill="#010712"/>
<path d="M763.004 408L791.657 401.852L806.618 375.312L819 397.278L831.382 375.312L846.343 401.852L874.996 408L875 408L819 312L819 354.667L806.179 333.979L763 408L763.004 408Z" fill="#010712"/>
<path d="M1875 408L1903.66 401.852L1918.62 375.312L1931 397.278L1943.38 375.312L1958.34 401.852L1987 408L1987 408L1931 312L1931 354.667L1918.18 333.979L1875 408L1875 408Z" fill="#010712"/>
<path d="M485.004 408L513.657 401.852L528.618 375.312L541 397.278L553.382 375.312L568.343 401.852L596.996 408L597 408L541 312L541 354.667L528.179 333.979L485 408L485.004 408Z" fill="#010712"/>
<path d="M1597 408L1625.66 401.852L1640.62 375.312L1653 397.278L1665.38 375.312L1680.34 401.852L1709 408L1709 408L1653 312L1653 354.667L1640.18 333.979L1597 408L1597 408Z" fill="#010712"/>
<path d="M1041 408L1069.66 401.852L1084.62 375.312L1097 397.278L1109.38 375.312L1124.34 401.852L1153 408L1153 408L1097 312L1097 354.667L1084.18 333.979L1041 408L1041 408Z" fill="#010712"/>
<path d="M2153 408L2181.66 401.852L2196.62 375.312L2209 397.278L2221.38 375.312L2236.34 401.852L2265 408L2265 408L2209 312L2209 354.667L2196.18 333.979L2153 408L2153 408Z" fill="#010712"/>
<path d="M139.004 279L167.657 285.148L182.618 311.688L195 289.722L207.382 311.688L222.343 285.148L250.996 279L251 279L195 375L195 332.333L182.179 353.021L139 279L139.004 279Z" fill="#010712"/>
<path d="M1251 279L1279.66 285.148L1294.62 311.688L1307 289.722L1319.38 311.688L1334.34 285.148L1363 279L1363 279L1307 375L1307 332.333L1294.18 353.021L1251 279L1251 279Z" fill="#010712"/>
<path d="M695.004 279L723.657 285.148L738.618 311.688L751 289.722L763.382 311.688L778.343 285.148L806.996 279L807 279L751 375L751 332.333L738.179 353.021L695 279L695.004 279Z" fill="#010712"/>
<path d="M1807 279L1835.66 285.148L1850.62 311.688L1863 289.722L1875.38 311.688L1890.34 285.148L1919 279L1919 279L1863 375L1863 332.333L1850.18 353.021L1807 279L1807 279Z" fill="#010712"/>
<path d="M417.004 279L445.657 285.148L460.618 311.688L473 289.722L485.382 311.688L500.343 285.148L528.996 279L529 279L473 375L473 332.333L460.179 353.021L417 279L417.004 279Z" fill="#010712"/>
<path d="M1529 279L1557.66 285.148L1572.62 311.688L1585 289.722L1597.38 311.688L1612.34 285.148L1641 279L1641 279L1585 375L1585 332.333L1572.18 353.021L1529 279L1529 279Z" fill="#010712"/>
<path d="M973.004 279L1001.66 285.148L1016.62 311.688L1029 289.722L1041.38 311.688L1056.34 285.148L1085 279L1085 279L1029 375L1029 332.333L1016.18 353.021L973 279L973.004 279Z" fill="#010712"/>
<path d="M2085 279L2113.66 285.148L2128.62 311.688L2141 289.722L2153.38 311.688L2168.34 285.148L2197 279L2197 279L2141 375L2141 332.333L2128.18 353.021L2085 279L2085 279Z" fill="#010712"/>
<path d="M139.004 252L167.657 245.852L182.618 219.312L195 241.278L207.382 219.312L222.343 245.852L250.996 252L251 252L195 156L195 198.667L182.179 177.979L139 252L139.004 252Z" fill="#010712"/>
<path d="M1251 252L1279.66 245.852L1294.62 219.312L1307 241.278L1319.38 219.312L1334.34 245.852L1363 252L1363 252L1307 156L1307 198.667L1294.18 177.979L1251 252L1251 252Z" fill="#010712"/>
<path d="M695.004 252L723.657 245.852L738.618 219.312L751 241.278L763.382 219.312L778.343 245.852L806.996 252L807 252L751 156L751 198.667L738.179 177.979L695 252L695.004 252Z" fill="#010712"/>
<path d="M1807 252L1835.66 245.852L1850.62 219.312L1863 241.278L1875.38 219.312L1890.34 245.852L1919 252L1919 252L1863 156L1863 198.667L1850.18 177.979L1807 252L1807 252Z" fill="#010712"/>
<path d="M417.004 252L445.657 245.852L460.618 219.312L473 241.278L485.382 219.312L500.343 245.852L528.996 252L529 252L473 156L473 198.667L460.179 177.979L417 252L417.004 252Z" fill="#010712"/>
<path d="M1529 252L1557.66 245.852L1572.62 219.312L1585 241.278L1597.38 219.312L1612.34 245.852L1641 252L1641 252L1585 156L1585 198.667L1572.18 177.979L1529 252L1529 252Z" fill="#010712"/>
<path d="M973.004 252L1001.66 245.852L1016.62 219.312L1029 241.278L1041.38 219.312L1056.34 245.852L1085 252L1085 252L1029 156L1029 198.667L1016.18 177.979L973 252L973.004 252Z" fill="#010712"/>
<path d="M2085 252L2113.66 245.852L2128.62 219.312L2141 241.278L2153.38 219.312L2168.34 245.852L2197 252L2197 252L2141 156L2141 198.667L2128.18 177.979L2085 252L2085 252Z" fill="#010712"/>
<path d="M0.00445183 279L28.6567 285.148L43.6177 311.688L56 289.722L68.3823 311.688L83.3434 285.148L111.996 279L112 279L56 375L56 332.333L43.1788 353.021L0 279L0.00445183 279Z" fill="#010712"/>
<path d="M1112 279L1140.66 285.148L1155.62 311.688L1168 289.722L1180.38 311.688L1195.34 285.148L1224 279L1224 279L1168 375L1168 332.333L1155.18 353.021L1112 279L1112 279Z" fill="#010712"/>
<path d="M556.004 279L584.657 285.148L599.618 311.688L612 289.722L624.382 311.688L639.343 285.148L667.996 279L668 279L612 375L612 332.333L599.179 353.021L556 279L556.004 279Z" fill="#010712"/>
<path d="M1668 279L1696.66 285.148L1711.62 311.688L1724 289.722L1736.38 311.688L1751.34 285.148L1780 279L1780 279L1724 375L1724 332.333L1711.18 353.021L1668 279L1668 279Z" fill="#010712"/>
<path d="M278.004 279L306.657 285.148L321.618 311.688L334 289.722L346.382 311.688L361.343 285.148L389.996 279L390 279L334 375L334 332.333L321.179 353.021L278 279L278.004 279Z" fill="#010712"/>
<path d="M1390 279L1418.66 285.148L1433.62 311.688L1446 289.722L1458.38 311.688L1473.34 285.148L1502 279L1502 279L1446 375L1446 332.333L1433.18 353.021L1390 279L1390 279Z" fill="#010712"/>
<path d="M834.004 279L862.657 285.148L877.618 311.688L890 289.722L902.382 311.688L917.343 285.148L945.996 279L946 279L890 375L890 332.333L877.179 353.021L834 279L834.004 279Z" fill="#010712"/>
<path d="M1946 279L1974.66 285.148L1989.62 311.688L2002 289.722L2014.38 311.688L2029.34 285.148L2058 279L2058 279L2002 375L2002 332.333L1989.18 353.021L1946 279L1946 279Z" fill="#010712"/>
<path d="M0.00445183 252L28.6567 245.852L43.6177 219.312L56 241.278L68.3823 219.312L83.3434 245.852L111.996 252L112 252L56 156L56 198.667L43.1788 177.979L0 252L0.00445183 252Z" fill="#010712"/>
<path d="M1112 252L1140.66 245.852L1155.62 219.312L1168 241.278L1180.38 219.312L1195.34 245.852L1224 252L1224 252L1168 156L1168 198.667L1155.18 177.979L1112 252L1112 252Z" fill="#010712"/>
<path d="M556.004 252L584.657 245.852L599.618 219.312L612 241.278L624.382 219.312L639.343 245.852L667.996 252L668 252L612 156L612 198.667L599.179 177.979L556 252L556.004 252Z" fill="#010712"/>
<path d="M1668 252L1696.66 245.852L1711.62 219.312L1724 241.278L1736.38 219.312L1751.34 245.852L1780 252L1780 252L1724 156L1724 198.667L1711.18 177.979L1668 252L1668 252Z" fill="#010712"/>
<path d="M278.004 252L306.657 245.852L321.618 219.312L334 241.278L346.382 219.312L361.343 245.852L389.996 252L390 252L334 156L334 198.667L321.179 177.979L278 252L278.004 252Z" fill="#010712"/>
<path d="M1390 252L1418.66 245.852L1433.62 219.312L1446 241.278L1458.38 219.312L1473.34 245.852L1502 252L1502 252L1446 156L1446 198.667L1433.18 177.979L1390 252L1390 252Z" fill="#010712"/>
<path d="M834.004 252L862.657 245.852L877.618 219.312L890 241.278L902.382 219.312L917.343 245.852L945.996 252L946 252L890 156L890 198.667L877.179 177.979L834 252L834.004 252Z" fill="#010712"/>
<path d="M1946 252L1974.66 245.852L1989.62 219.312L2002 241.278L2014.38 219.312L2029.34 245.852L2058 252L2058 252L2002 156L2002 198.667L1989.18 177.979L1946 252L1946 252Z" fill="#010712"/>
<path d="M346.004 123L374.657 129.148L389.618 155.688L402 133.722L414.382 155.688L429.343 129.148L457.996 123L458 123L402 219L402 176.333L389.179 197.021L346 123L346.004 123Z" fill="#010712"/>
<path d="M1458 123L1486.66 129.148L1501.62 155.688L1514 133.722L1526.38 155.688L1541.34 129.148L1570 123L1570 123L1514 219L1514 176.333L1501.18 197.021L1458 123L1458 123Z" fill="#010712"/>
<path d="M902.004 123L930.657 129.148L945.618 155.688L958 133.722L970.382 155.688L985.343 129.148L1014 123L1014 123L958 219L958 176.333L945.179 197.021L902 123L902.004 123Z" fill="#010712"/>
<path d="M2014 123L2042.66 129.148L2057.62 155.688L2070 133.722L2082.38 155.688L2097.34 129.148L2126 123L2126 123L2070 219L2070 176.333L2057.18 197.021L2014 123L2014 123Z" fill="#010712"/>
<path d="M624.004 123L652.657 129.148L667.618 155.688L680 133.722L692.382 155.688L707.343 129.148L735.996 123L736 123L680 219L680 176.333L667.179 197.021L624 123L624.004 123Z" fill="#010712"/>
<path d="M1736 123L1764.66 129.148L1779.62 155.688L1792 133.722L1804.38 155.688L1819.34 129.148L1848 123L1848 123L1792 219L1792 176.333L1779.18 197.021L1736 123L1736 123Z" fill="#010712"/>
<path d="M1180 123L1208.66 129.148L1223.62 155.688L1236 133.722L1248.38 155.688L1263.34 129.148L1292 123L1292 123L1236 219L1236 176.333L1223.18 197.021L1180 123L1180 123Z" fill="#010712"/>
<path d="M2292 123L2320.66 129.148L2335.62 155.688L2348 133.722L2360.38 155.688L2375.34 129.148L2404 123L2404 123L2348 219L2348 176.333L2335.18 197.021L2292 123L2292 123Z" fill="#010712"/>
<path d="M346.004 96L374.657 89.8523L389.618 63.3118L402 85.2777L414.382 63.3118L429.343 89.8523L457.996 96L458 96L402 4.03261e-06L402 42.6667L389.179 21.9793L346 96L346.004 96Z" fill="#010712"/>
<path d="M1458 96L1486.66 89.8523L1501.62 63.3118L1514 85.2777L1526.38 63.3118L1541.34 89.8523L1570 96L1570 96L1514 4.03261e-06L1514 42.6667L1501.18 21.9793L1458 96L1458 96Z" fill="#010712"/>
<path d="M902.004 96L930.657 89.8523L945.618 63.3118L958 85.2777L970.382 63.3118L985.343 89.8523L1014 96L1014 96L958 4.03261e-06L958 42.6667L945.179 21.9793L902 96L902.004 96Z" fill="#010712"/>
<path d="M2014 96L2042.66 89.8523L2057.62 63.3118L2070 85.2777L2082.38 63.3118L2097.34 89.8523L2126 96L2126 96L2070 4.03261e-06L2070 42.6667L2057.18 21.9793L2014 96L2014 96Z" fill="#010712"/>
<path d="M624.004 96L652.657 89.8523L667.618 63.3118L680 85.2777L692.382 63.3118L707.343 89.8523L735.996 96L736 96L680 4.03261e-06L680 42.6667L667.179 21.9793L624 96L624.004 96Z" fill="#010712"/>
<path d="M1736 96L1764.66 89.8523L1779.62 63.3118L1792 85.2777L1804.38 63.3118L1819.34 89.8523L1848 96L1848 96L1792 4.03261e-06L1792 42.6667L1779.18 21.9793L1736 96L1736 96Z" fill="#010712"/>
<path d="M1180 96L1208.66 89.8523L1223.62 63.3118L1236 85.2777L1248.38 63.3118L1263.34 89.8523L1292 96L1292 96L1236 4.03261e-06L1236 42.6667L1223.18 21.9793L1180 96L1180 96Z" fill="#010712"/>
<path d="M2292 96L2320.66 89.8523L2335.62 63.3118L2348 85.2777L2360.38 63.3118L2375.34 89.8523L2404 96L2404 96L2348 4.03261e-06L2348 42.6667L2335.18 21.9793L2292 96L2292 96Z" fill="#010712"/>
<path d="M207.004 123L235.657 129.148L250.618 155.688L263 133.722L275.382 155.688L290.343 129.148L318.996 123L319 123L263 219L263 176.333L250.179 197.021L207 123L207.004 123Z" fill="#010712"/>
<path d="M1319 123L1347.66 129.148L1362.62 155.688L1375 133.722L1387.38 155.688L1402.34 129.148L1431 123L1431 123L1375 219L1375 176.333L1362.18 197.021L1319 123L1319 123Z" fill="#010712"/>
<path d="M763.004 123L791.657 129.148L806.618 155.688L819 133.722L831.382 155.688L846.343 129.148L874.996 123L875 123L819 219L819 176.333L806.179 197.021L763 123L763.004 123Z" fill="#010712"/>
<path d="M1875 123L1903.66 129.148L1918.62 155.688L1931 133.722L1943.38 155.688L1958.34 129.148L1987 123L1987 123L1931 219L1931 176.333L1918.18 197.021L1875 123L1875 123Z" fill="#010712"/>
<path d="M485.004 123L513.657 129.148L528.618 155.688L541 133.722L553.382 155.688L568.343 129.148L596.996 123L597 123L541 219L541 176.333L528.179 197.021L485 123L485.004 123Z" fill="#010712"/>
<path d="M1597 123L1625.66 129.148L1640.62 155.688L1653 133.722L1665.38 155.688L1680.34 129.148L1709 123L1709 123L1653 219L1653 176.333L1640.18 197.021L1597 123L1597 123Z" fill="#010712"/>
<path d="M1041 123L1069.66 129.148L1084.62 155.688L1097 133.722L1109.38 155.688L1124.34 129.148L1153 123L1153 123L1097 219L1097 176.333L1084.18 197.021L1041 123L1041 123Z" fill="#010712"/>
<path d="M2153 123L2181.66 129.148L2196.62 155.688L2209 133.722L2221.38 155.688L2236.34 129.148L2265 123L2265 123L2209 219L2209 176.333L2196.18 197.021L2153 123L2153 123Z" fill="#010712"/>
<path d="M207.004 96L235.657 89.8523L250.618 63.3118L263 85.2777L275.382 63.3118L290.343 89.8523L318.996 96L319 96L263 4.03261e-06L263 42.6667L250.179 21.9793L207 96L207.004 96Z" fill="#010712"/>
<path d="M1319 96L1347.66 89.8523L1362.62 63.3118L1375 85.2777L1387.38 63.3118L1402.34 89.8523L1431 96L1431 96L1375 4.03261e-06L1375 42.6667L1362.18 21.9793L1319 96L1319 96Z" fill="#010712"/>
<path d="M763.004 96L791.657 89.8523L806.618 63.3118L819 85.2777L831.382 63.3118L846.343 89.8523L874.996 96L875 96L819 4.03261e-06L819 42.6667L806.179 21.9793L763 96L763.004 96Z" fill="#010712"/>
<path d="M1875 96L1903.66 89.8523L1918.62 63.3118L1931 85.2777L1943.38 63.3118L1958.34 89.8523L1987 96L1987 96L1931 4.03261e-06L1931 42.6667L1918.18 21.9793L1875 96L1875 96Z" fill="#010712"/>
<path d="M485.004 96L513.657 89.8523L528.618 63.3118L541 85.2777L553.382 63.3118L568.343 89.8523L596.996 96L597 96L541 4.03261e-06L541 42.6667L528.179 21.9793L485 96L485.004 96Z" fill="#010712"/>
<path d="M1597 96L1625.66 89.8523L1640.62 63.3118L1653 85.2777L1665.38 63.3118L1680.34 89.8523L1709 96L1709 96L1653 4.03261e-06L1653 42.6667L1640.18 21.9793L1597 96L1597 96Z" fill="#010712"/>
<path d="M1041 96L1069.66 89.8523L1084.62 63.3118L1097 85.2777L1109.38 63.3118L1124.34 89.8523L1153 96L1153 96L1097 4.03261e-06L1097 42.6667L1084.18 21.9793L1041 96L1041 96Z" fill="#010712"/>
<path d="M2153 96L2181.66 89.8523L2196.62 63.3118L2209 85.2777L2221.38 63.3118L2236.34 89.8523L2265 96L2265 96L2209 4.03261e-06L2209 42.6667L2196.18 21.9793L2153 96L2153 96Z" fill="#010712"/>
</g>
</svg>
