<svg width="450" height="76" viewBox="0 0 450 76" fill="none" xmlns="http://www.w3.org/2000/svg">
<path d="M329.456 75.9515H326.665V62.9707H329.456V75.9515ZM333.386 65.2352H322.788V62.9707H333.386V65.2352Z" fill="#CE0058"/>
<path d="M341.005 75.9515H338.026L344.104 62.9707H345.988L345.722 65.4314L341.005 75.9515ZM345.09 65.4314L344.797 62.9707H346.691L352.536 75.9515H349.558L345.09 65.4314ZM348.46 73.366H341.596V71.1015H348.46V73.366Z" fill="#CE0058"/>
<path d="M367.156 62.9707H370.258L364.938 75.9515H362.884L363.32 73.0718L367.156 62.9707ZM363.605 73.0718L364.058 75.9515H362.004L356.542 62.9707H359.645L363.605 73.0718Z" fill="#CE0058"/>
<path d="M386.038 75.9515H378.23V73.6959H386.038V75.9515ZM379.128 75.9515H376.328V62.9707H379.128V75.9515ZM385.058 70.3705H378.23V68.1862H385.058V70.3705ZM386.038 65.2352H378.23V62.9707H386.038V65.2352Z" fill="#CE0058"/>
<path d="M399.634 62.9707C400.635 62.9707 401.495 63.1223 402.212 63.4254C402.935 63.7226 403.489 64.1624 403.874 64.7449C404.26 65.3214 404.452 66.0376 404.452 66.8935C404.452 67.6067 404.334 69.366 404.097 69.8653C403.865 70.3645 403.539 70.7776 403.119 71.1045C402.698 71.4314 402.203 71.6959 401.634 71.898L400.745 72.4062H395.749L395.731 70.1417H399.625C400.075 70.1417 400.451 70.0674 400.754 69.9188C401.056 69.7642 401.281 69.5473 401.429 69.268C401.578 68.9886 401.652 67.5057 401.652 67.1253C401.652 66.5428 401.486 66.0822 401.154 65.7434C400.828 65.4046 400.321 65.2352 399.634 65.2352H396.148V75.9515H393.356V62.9707H399.634ZM398.682 71.3363L401.634 71.3185L404.709 75.8178V75.9515H401.713L398.682 71.3363Z" fill="#CE0058"/>
<path d="M423.173 75.9515H420.876L414.078 67.5978V75.9515H411.286V62.9707L413.593 62.9707L420.39 71.3333V62.9707H423.173V75.9515Z" fill="#CE0058"/>
<path d="M405.297 0.484436H450L441.849 14.8529H415.536L413.268 19.0038H433.033L426.412 30.4986H406.798L404.738 34.3302H431.099L422.948 48.6987H378.571L405.297 0.484436Z" fill="#CE0058"/>
<path d="M355.558 20.9196L367.168 0.484436H348.637L321.429 48.6987H339.958L353.177 25.3898L358.733 48.6987H377.263L371.789 25.7091L401.786 0.484456H379.786L355.558 20.9196Z" fill="#CE0058"/>
<path d="M341.072 0.484436L313.452 48.6987H294.643L322.261 0.484436H341.072Z" fill="#CE0058"/>
<path fill-rule="evenodd" clip-rule="evenodd" d="M295.94 0.484436H260.833L233.929 48.6987H252.251L258.53 37.5232H269.393L272.209 48.6987L288.642 48.6987L284.989 34.3302L295.7 27.6249L303.571 13.895L295.94 0.484436ZM266.681 23.1547H280.819L286.02 13.895H271.882L266.681 23.1547Z" fill="#CE0058"/>
<path d="M255.357 0.484436H173.347L165.146 15.1722L175.87 34.3302H153.79L144.643 48.6987H187.856L197.004 34.3302L185.333 15.1722H215.929L197.95 48.6987H216.244L235.17 15.1722H247.526L255.357 0.484436Z" fill="#CE0058"/>
<path d="M139.065 48.6987L166.071 0.484436H147.679L134.978 23.1547L128.955 0.484436H114.504L87.4998 48.6987H105.89L119.005 25.3898L125.222 48.6987H139.065Z" fill="#CE0058"/>
<path d="M107.143 0.484436L79.523 48.6987H60.7144L88.3322 0.484436H107.143Z" fill="#CE0058"/>
<path d="M0.00319407 0.484443L20.5604 4.82992L31.2946 23.5899L40.1786 8.06342L49.0626 23.5899L59.7967 4.82992L80.354 0.484436L80.3571 0.484436L40.1786 68.3416L40.1786 38.1828L30.9797 52.8056L0 0.484443L0.00319407 0.484443Z" fill="#CE0058"/>
</svg>
